<?xml version="1.0" encoding="UTF-8" standalone="no"?>
<!-- Created with Inkscape (http://www.inkscape.org/) -->

<svg
   width="459.96091"
   height="459.65753"
   viewBox="0 0 459.96091 459.65753"
   version="1.1"
   id="svg1"
   xml:space="preserve"
   xmlns:inkscape="http://www.inkscape.org/namespaces/inkscape"
   xmlns:sodipodi="http://sodipodi.sourceforge.net/DTD/sodipodi-0.dtd"
   xmlns="http://www.w3.org/2000/svg"
   xmlns:svg="http://www.w3.org/2000/svg"><sodipodi:namedview
     id="namedview1"
     pagecolor="#ffffff"
     bordercolor="#000000"
     borderopacity="0.25"
     inkscape:showpageshadow="2"
     inkscape:pageopacity="0.0"
     inkscape:pagecheckerboard="0"
     inkscape:deskcolor="#d1d1d1"
     inkscape:document-units="px"
     inkscape:export-bgcolor="#ffffff00"><inkscape:page
       x="0"
       y="0"
       width="459.96091"
       height="459.65753"
       id="page2"
       margin="0"
       bleed="0" /></sodipodi:namedview><defs
     id="defs1" /><g
     inkscape:label="Capa 1"
     inkscape:groupmode="layer"
     id="layer1"
     transform="translate(-22.196144,-27.016808)"><path
       style="fill:#000000;stroke-width:0.863812"
       d="m 160.82366,389.11055 c -35.11974,-9.75794 -51.83555,-27.86254 -51.83555,-56.14215 0,-23.22522 5.94926,-27.34573 39.48199,-27.34573 13.76467,0 27.40388,0.9122 30.30923,2.02708 2.90543,1.11495 8.23329,7.8109 11.83965,14.87999 l 6.55704,12.8529 14.1778,-15.22455 14.17779,-15.2246 28.17187,1.1576 28.17179,1.15757 12.34355,14.47551 12.3435,14.47551 6.76545,-13.26138 c 3.72098,-7.2938 9.14265,-14.1736 12.04806,-15.28855 2.90536,-1.11488 17.49733,-2.02708 32.42655,-2.02708 33.3563,0 37.36469,2.93874 37.36469,27.39363 0,23.44016 -9.09945,36.50573 -34.14637,49.02919 l -19.51219,9.75609 -82.92683,0.7149 c -58.9468,0.50791 -87.21562,-0.47704 -97.75802,-3.40593 z m 188.01406,-19.9158 c 17.19282,-7.1482 30.06917,-21.94475 30.06917,-34.55332 v -9.50658 h -23.99567 c -23.66301,0 -24.0525,0.13709 -28.08829,9.88039 -8.50711,20.53789 -27.50435,21.93222 -42.61601,3.12779 -10.44162,-12.99324 -10.48045,-13.00818 -33.75478,-13.00818 h -23.30113 l -7.89174,12.19513 c -6.94683,10.73503 -9.44487,12.19515 -20.86375,12.19515 -11.66198,0 -13.62951,-1.23073 -19.48238,-12.18637 l -6.51038,-12.18631 -23.57723,-0.005 -23.57731,-0.005 V 334.46 c 0,11.34069 10.02313,24.74205 23.8644,31.90797 16.196,8.3849 40.8865,10.3989 115.97307,9.46004 58.10013,-0.7265 72.25706,-1.84645 83.75203,-6.62567 z M 123.91795,291.25066 c -16.18871,-6.02277 -25.591302,-15.25719 -22.83869,-22.43038 2.85432,-7.43828 9.52738,-6.87647 21.24781,1.78879 7.45942,5.51504 14.27918,7.26288 28.338,7.26288 13.48324,0 21.70781,-1.97364 30.26602,-7.26288 14.49513,-8.95847 19.15338,-9.03396 35.72609,-0.57949 7.20554,3.67599 19.9521,7.47523 28.32571,8.4428 14.56358,1.68271 21.9284,-0.0617 51.91418,-12.28087 9.73289,-3.96679 12.01314,-3.63915 25.88396,3.71932 20.24833,10.74169 41.20342,10.7557 60.81837,0.0432 11.73485,-6.41041 15.51423,-7.21172 18.75037,-3.9755 9.96056,9.96049 -14.2142,26.41836 -42.58454,28.99088 -15.90371,1.44209 -22.12717,0.34869 -37.14065,-6.52458 l -18.03559,-8.25698 -13.87645,6.86549 c -20.99137,10.38578 -47.12528,11.12445 -72.80731,2.05788 -20.87911,-7.37093 -21.53261,-7.40444 -31.34746,-1.60662 -13.37667,7.90176 -46.19684,9.86578 -62.63982,3.74845 z M 237.65337,254.5604 c -129.23989,-1.16536 -128.74087,-1.08076 -128.59386,-21.79953 0.17343,-24.48692 22.75772,-56.95267 53.82729,-77.37964 19.3058,-12.69288 20.89805,-14.63511 20.89805,-25.49127 0,-8.00667 -2.34838,-13.95772 -7.36932,-18.67465 -8.31665,-7.81313 -132.340582,-66.966984 -134.944902,-64.362664 -3.04508,3.04515 15.09969,23.85427 31.87026,36.54997 34.504002,26.120394 34.540482,26.160024 29.137512,31.660864 -4.378242,4.45755 -7.170122,4.14218 -26.977182,-3.04736 -12.15149,-4.41078 -24.588,-7.96377 -27.63671,-7.89557 -8.21137,0.1839 25.01173,30.07749 43.2271,38.89544 11.755722,5.69081 14.784272,8.76126 14.008392,14.20187 -0.88252,6.18805 -2.84278,6.86444 -18.063132,6.23279 -10.36818,-0.43016 -17.0732,0.65381 -17.0732,2.76032 0,4.70905 18.33251,21.52576 26.18185,24.01702 7.333592,2.32764 8.536182,13.9424 1.71456,16.5601 -13.33674,5.11779 -47.4086,-28.14038 -47.4086,-46.27638 0,-3.0781 2.24186,-8.07374 4.98194,-11.10153 4.52574,-5.00084 4.22736,-5.99945 -3.25812,-10.90412 -12.59919,-8.25532 -25.1461,-29.19368 -23.91859,-39.915494 0.89135,-7.78573 2.7225,-9.38852 11.71481,-10.25388 l 10.65824,-1.02572 -12.88695,-14.64041 c -21.67259,-24.62133 -20.53827,-44.85106 2.47823,-44.1967 13.72882,0.39065 147.637632,66.07555 154.406842,75.739884 2.97941,4.25377 5.41715,13.29001 5.41715,20.08058 0,11.90718 0.31845,12.25752 8.94312,9.84552 11.5944,-3.24244 74.58446,-3.24244 86.17886,0 8.62492,2.412 8.94312,2.06166 8.94312,-9.84552 0,-6.79057 2.31413,-15.65043 5.14253,-19.68852 4.9045,-7.002124 91.06915,-52.166154 133.9819,-70.227864 22.15106,-9.32328 34.91161,-8.75574 38.23022,1.70025 2.97343,9.36841 -3.94039,26.66491 -14.82814,37.09604 -11.96963,11.46763 -12.08572,13.85342 -0.73774,15.15919 18.15964,2.08947 10.18699,32.245904 -12.86456,48.660124 -8.8732,6.3182 -9.38334,7.52381 -4.64881,10.98576 6.17688,4.51668 6.88005,15.19332 1.66871,25.33673 -9.17473,17.85816 -34.34447,37.08481 -43.79853,33.45694 -6.84531,-2.62677 -5.53379,-14.23197 1.8741,-16.58312 7.53775,-2.39239 26.0617,-20.13329 26.0617,-24.95995 0,-2.08215 -5.80602,-2.50854 -15.67544,-1.15112 -12.03614,1.65538 -16.63126,1.00429 -19.79224,-2.80444 -5.61108,-6.76095 -2.58419,-10.48465 16.30233,-20.05517 16.88999,-8.55882 41.92955,-29.22571 41.92955,-34.60737 0,-4.08808 -16.18068,-0.4709 -34.86311,7.79294 -13.05187,5.77349 -15.21227,5.9508 -19.55787,1.6052 -6.4101,-6.41003 -4.06769,-9.5952 18.15446,-24.685954 26.6262,-18.08151 50.75986,-45.86406 39.84038,-45.86406 -5.74758,0 -128.8838,60.725714 -134.46821,66.314144 -3.47782,3.4803 -5.69105,10.63806 -5.69105,18.40496 0,11.62495 1.14877,13.29576 13.4592,19.57614 40.56589,20.69513 74.56655,81.09876 55.4089,98.43623 -7.97956,7.22134 -16.64978,7.58566 -151.58504,6.369 z m 139.56765,-20.38564 c 3.91317,-6.33153 -12.30277,-35.89642 -27.47023,-50.08378 -42.40883,-39.66843 -107.82718,-49.50388 -161.48975,-24.27948 -30.12804,14.16187 -67.43673,58.04717 -61.81123,72.70701 1.58496,4.13034 19.32724,4.81143 125.33377,4.81143 76.28994,0 124.23277,-1.20591 125.43744,-3.15518 z M 219.75539,217.94019 c -6.2118,-3.83911 -2.71644,-14.75662 4.7244,-14.75662 4.10672,0 6.81835,2.51445 7.4445,6.90321 1.07428,7.52904 -5.6608,11.87562 -12.1689,7.85341 z m 57.3669,-5.43006 c -1.25424,-1.25429 -2.28051,-4.96343 -2.28051,-8.24253 0,-4.23458 2.42128,-5.96205 8.35629,-5.96205 6.79574,0 8.16224,1.36021 7.31711,7.28386 -1.02854,7.20923 -8.99022,11.32342 -13.39289,6.92072 z M 187.8499,192.76657 c -5.01261,-1.85842 -5.35933,-12.78946 -0.50112,-15.79213 1.96024,-1.21152 5.93235,0.1653 8.82697,3.06008 4.61425,4.6143 4.67603,5.81595 0.50113,9.75103 -2.61907,2.46847 -6.59122,3.80992 -8.82698,2.98102 z m 120.99032,-2.36053 c -6.05554,-4.48836 -6.08696,-4.98418 -0.66504,-10.48477 5.37489,-5.45296 6.00073,-5.46401 11.26602,-0.19872 4.9715,4.9715 5.04346,6.10633 0.66504,10.48475 -4.30061,4.30063 -5.69864,4.32524 -11.26602,0.19874 z m -62.67988,-5.88842 c 1.24455,-8.72341 10.76169,-11.48782 13.64865,-3.96445 2.74552,7.15457 -0.22031,11.2483 -8.14952,11.2483 -4.91294,0 -6.28,-1.81072 -5.49913,-7.28385 z"
       id="path1"
       sodipodi:nodetypes="ssssscccccccssssscsssscsssscssscccsssssssssssssssssscssssssssssssssssssssssssscssssssssssssssssssssssssssssssssssssssssssssssssssssssssssss"
       inkscape:export-filename="logo angel.svg"
       inkscape:export-xdpi="96"
       inkscape:export-ydpi="96" /><text
       xml:space="preserve"
       style="font-style:normal;font-variant:normal;font-weight:normal;font-stretch:normal;font-size:74.058px;font-family:'Bauhaus 93';-inkscape-font-specification:'Bauhaus 93, ';text-align:start;writing-mode:lr-tb;direction:ltr;text-anchor:start;fill:#000000;stroke-width:6.1715"
       x="182.53722"
       y="77.606232"
       id="text1"
       inkscape:label="text1"><tspan
         sodipodi:role="line"
         id="tspan1"
         x="182.53722"
         y="77.606232"
         style="stroke-width:6.1715">BAR</tspan></text><text
       xml:space="preserve"
       style="font-style:normal;font-variant:normal;font-weight:normal;font-stretch:normal;font-size:74.058px;font-family:'Bauhaus 93';-inkscape-font-specification:'Bauhaus 93, ';text-align:start;writing-mode:lr-tb;direction:ltr;text-anchor:start;fill:#000000;stroke-width:6.1715"
       x="120.02403"
       y="469.93173"
       id="text2"><tspan
         sodipodi:role="line"
         id="tspan2"
         x="120.02403"
         y="469.93173"
         style="stroke-width:6.1715">El Ángel</tspan></text></g></svg>
