<?xml version="1.0" encoding="UTF-8" standalone="no"?>
<!-- Created with Inkscape (http://www.inkscape.org/) -->

<svg
   width="1920"
   height="1080"
   viewBox="0 0 1920 1080"
   version="1.1"
   id="svg5"
   inkscape:version="1.1.1 (3bf5ae0d25, 2021-09-20)"
   sodipodi:docname="ImagenVector.svg"
   xmlns:inkscape="http://www.inkscape.org/namespaces/inkscape"
   xmlns:sodipodi="http://sodipodi.sourceforge.net/DTD/sodipodi-0.dtd"
   xmlns="http://www.w3.org/2000/svg"
   xmlns:svg="http://www.w3.org/2000/svg">
  <sodipodi:namedview
     id="namedview7"
     pagecolor="#ffffff"
     bordercolor="#666666"
     borderopacity="1.0"
     inkscape:pageshadow="2"
     inkscape:pageopacity="0.0"
     inkscape:pagecheckerboard="0"
     inkscape:document-units="px"
     showgrid="false"
     inkscape:zoom="0.35755208"
     inkscape:cx="229.33722"
     inkscape:cy="99.286234"
     inkscape:window-width="1920"
     inkscape:window-height="1051"
     inkscape:window-x="-9"
     inkscape:window-y="-9"
     inkscape:window-maximized="1"
     inkscape:current-layer="layer1" />
  <defs
     id="defs2" />
  <g
     inkscape:label="Capa 1"
     inkscape:groupmode="layer"
     id="layer1">
    <g
       id="g1323"
       transform="matrix(1.3787842,0,0,1.3787842,-3.7798385,-131.40278)">
      <path
         style="fill:#cccccc"
         d="M 11.017872,789.67192 C 8.2696475,784.17301 8.0413865,782.7355 6.9207869,763.86976 5.7547829,744.23962 6.1806627,731.2326 8.3409677,720.49527 10.626806,709.134 16.40491,684.0036 18.288743,677.22996 c 2.926134,-22.25658 2.91783,-36.10517 34.139499,-36.61511 14.061644,-0.0207 31.784016,6.85414 47,18.23221 l 6.499998,4.8605 17.45432,2.74635 c 17.60898,2.77068 21.82017,3.02936 34.52394,2.12072 5.90401,-0.42228 7.28948,-0.20767 9,1.39415 3.09573,2.899 5.96483,3.63282 19.78904,5.06134 18.26929,1.88788 44.46168,-0.44748 83.7327,-7.46573 32.39835,-5.79001 46.36879,-6.70678 62.5,-4.10136 4.95,0.79949 14.625,2.3469 21.5,3.43867 6.875,1.09178 17.1125,2.99443 22.75,4.22811 12.05583,2.63824 11.79403,2.08922 7.25,15.20353 -1.65,4.76199 -3,10.0679 -3,11.79089 0,3.03323 0.11333,3.11433 3.56853,2.55363 1.96269,-0.3185 6.01678,-2.20415 9.00908,-4.19033 2.9923,-1.98618 8.02396,-4.82196 11.18147,-6.30175 5.37339,-2.51827 6.60519,-2.68642 19.24092,-2.62665 15.86258,0.0751 24.68824,1.90467 46.5,9.6398 20.29412,7.19692 38.09658,17.17988 45.75658,25.65858 4.79553,5.30808 5.59825,8.49026 3.02104,11.97613 -1.08876,1.47263 -2.24394,4.02393 -2.56707,5.66957 -2.29197,11.67276 -2.97292,13.14916 -10.05214,21.7945 -2.16285,2.64134 -4.22474,6.23154 -4.58197,7.97821 -0.53805,2.63073 -1.31478,3.36243 -4.52581,4.26334 -4.17602,1.17169 -12.49233,9.55643 -12.53006,12.6332 -0.0113,0.92246 -1.56948,2.95394 -3.4626,4.5144 -2.42474,1.99869 -3.74748,4.16293 -4.47555,7.32282 -1.41359,6.13508 -1.45963,6.01103 1.97599,5.3239 l 3.05841,-0.61168 -0.4326,8.08393 c -0.38303,7.15746 -0.78094,8.52374 -3.47197,11.92144 -1.67164,2.11062 -4.09076,4.31979 -5.3758,4.90926 -1.28505,0.58947 -5.26152,2.44954 -8.8366,4.13348 -10.36299,4.88122 -10.97687,4.90406 -19.43848,0.72309 -7.2465,-3.58055 -15.56137,-10.91304 -15.56137,-13.72283 0,-0.69831 2.25,-3.3382 5,-5.86641 2.75,-2.5282 5,-5.1169 5,-5.75266 0,-2.12648 -5.16201,-1.1881 -12.58381,2.28756 -4.04421,1.89391 -9.7298,3.9194 -12.63465,4.50108 -12.93026,2.58921 -14.97304,3.05574 -15.90661,3.63272 -1.54839,0.95695 -18.11303,-1.61441 -20.62493,-3.20165 -1.96222,-1.23991 -2.25,-1.23146 -2.25,0.0661 0,1.81893 -2.95343,3.46848 -5,2.79263 -0.825,-0.27244 -2.32439,-1.21478 -3.33199,-2.09406 -1.68363,-1.46924 -1.91035,-1.45867 -2.79969,0.13049 -1.20273,2.14916 -3.86832,2.27287 -3.86832,0.17953 0,-0.85231 0.64452,-2.79603 1.43227,-4.31936 2.87528,-5.56017 -3.10856,-11.51847 -11.72043,-11.67042 -2.86651,-0.0506 -6.19476,-0.6249 -7.3961,-1.27626 -2.738,-1.48455 -9.97217,-1.54922 -10.86958,-0.0972 -0.36953,0.59791 -1.40859,0.85934 -2.30902,0.58096 -0.90043,-0.27839 -3.05837,-0.94935 -4.79544,-1.49101 -2.34742,-0.732 -3.85304,-0.62441 -5.8643,0.41905 -3.65517,1.89631 -8.11305,1.79575 -8.87902,-0.20032 -0.4966,-1.29413 -1.43543,-1.46295 -4.85699,-0.87329 -2.33276,0.402 -9.64139,0.86186 -16.24139,1.02191 -6.6,0.16005 -13.87359,0.59658 -16.16353,0.97008 -3.74625,0.61103 -4.33405,0.41883 -5.86501,-1.9177 -0.93581,-1.42821 -2.4623,-2.59676 -3.39219,-2.59676 -0.92989,0 -3.20204,-1.11502 -5.04922,-2.47784 -2.28153,-1.68326 -4.10455,-2.29058 -5.68497,-1.89392 -1.61782,0.40603 -2.51917,0.0817 -2.95916,-1.06494 -0.50839,-1.32484 -1.46949,-1.52336 -4.89109,-1.01026 -2.59087,0.38852 -4.51291,0.22672 -4.90841,-0.41322 -1.24658,-2.01701 2.16895,-7.68017 8.02026,-13.29804 11.23879,-10.79044 19.42835,-16.47689 34.59839,-24.02352 7.54355,-3.75269 12.34322,-6.78818 13.5,-8.53794 3.49039,-5.27958 12.89413,-13.51991 20.72501,-18.16095 4.36154,-2.58492 8.101,-5.21262 8.30991,-5.83934 0.23193,-0.6958 -1.49308,-1.38591 -4.43008,-1.77229 -2.64545,-0.34802 -7.0419,-1.31967 -9.76988,-2.15925 -3.40738,-1.04866 -6.64391,-1.31608 -10.33958,-0.85434 -5.5243,0.69021 -8.02151,2.55489 -17.41766,13.00585 -1.48347,1.64999 -5.71603,5.25 -9.40568,8 -3.68966,2.75 -8.42739,6.50896 -10.52829,8.35325 -2.1009,1.8443 -6.86385,4.59356 -10.58432,6.10946 -3.72048,1.5159 -8.9901,4.16943 -11.71028,5.89674 -2.72018,1.7273 -5.33155,3.14055 -5.80305,3.14055 -0.4715,0 -2.51286,1.125 -4.53636,2.5 -2.02349,1.375 -4.60501,2.5 -5.7367,2.5 -3.05394,0 -21.51538,5.9121 -24.97811,7.99901 -1.65,0.99441 -5.025,2.35797 -7.5,3.03012 -2.475,0.67216 -5.91801,1.84059 -7.65113,2.59649 -1.73312,0.75591 -3.40064,1.37438 -3.70559,1.37438 -0.30495,0 -2.21224,1.125 -4.23842,2.5 -3.98465,2.70406 -9.21874,3.25769 -12.34434,1.30573 -1.48942,-0.93016 -2.51757,-0.91852 -4.64908,0.0527 -2.37858,1.08375 -3.2959,0.95032 -7.0091,-1.01954 -4.05934,-2.15346 -4.3674,-2.18046 -6.17865,-0.5413 -1.82093,1.64792 -2.1067,1.57215 -6.38143,-1.69183 -2.46132,-1.87936 -5.57023,-3.47111 -6.90869,-3.53723 -29.96738,-1.48023 -43.51897,0.26837 -51.260293,6.61429 -1.898896,1.55661 -4.12603,2.3172 -6.785184,2.3172 -2.177151,0 -5.004111,0.68514 -6.282132,1.52253 -2.039852,1.33656 -2.472433,1.34329 -3.54158,0.055 -2.141046,-2.5798 -0.841066,-5.93979 2.995355,-7.74195 3.993498,-1.87594 5.379744,-3.30568 6.385265,-6.58562 0.551372,-1.79854 0.299523,-2.25 -1.255167,-2.25 -1.069718,0 -2.537452,-0.71393 -3.26163,-1.58651 -0.989472,-1.19224 -2.324602,-1.43121 -5.372445,-0.96157 -3.91352,0.60302 -9.913075,0.73877 -29.055757,0.65745 -7.846793,-0.0333 -9.462462,0.26742 -12.609203,2.34721 -3.800681,2.512 -5.138833,5.91136 -4.210079,10.695 0.395279,2.03594 0.05135,2.79868 -1.481268,3.28513 -1.475574,0.46833 -2.099942,1.72266 -2.394391,4.81025 -0.329326,3.4533 0.07162,4.70294 2.31489,7.21488 l 2.713204,3.03816 c 20.095126,1.27941 0,10e-6 -9.243523,-8.82334 z m 432.331468,3.86333 c 5.20065,-2.63536 12.0789,-9.80913 12.0789,-12.59785 0,-4.01832 3.18672,-8.84296 8.59861,-13.01821 9.33815,-7.20433 16.64265,-16.65787 18.85878,-24.40719 1.0436,-3.64922 3.39261,-8.95567 5.22003,-11.79212 2.58503,-4.01237 3.32258,-6.22207 3.32258,-9.95446 0,-2.63851 -0.41217,-5.57868 -0.91593,-6.53372 -0.50377,-0.95505 -1.65183,-3.42804 -2.55125,-5.49555 -1.94468,-4.47028 -6.59303,-7.09201 -22.88582,-12.90793 -16.51965,-5.8969 -27.2898,-8.04871 -40.647,-8.12101 -11.27315,-0.061 -11.65781,0.012 -19.5,3.70454 -4.4,2.07174 -9.35,4.78626 -11,6.03226 -3.5593,2.68783 -23.89586,9.48874 -25.01809,8.3665 -0.27949,-0.27949 0.21376,-2.23597 1.09612,-4.34775 0.88235,-2.11177 2.21395,-6.7535 2.9591,-10.31496 1.17198,-5.60145 1.15352,-6.95716 -0.13677,-10.04526 -1.94384,-4.65226 -9.08582,-11.10727 -12.28934,-11.10727 -1.35796,0 -3.85097,-0.43142 -5.54002,-0.9587 -1.68905,-0.52728 -9.72735,-2.12793 -17.86288,-3.55699 -16.2232,-2.84972 -29.28546,-3.50429 -34.70812,-1.73928 -1.925,0.62656 -8.26405,1.56557 -14.08678,2.08667 -5.82272,0.52111 -11.44772,1.41331 -12.5,1.98266 -1.05227,0.56936 -6.11999,1.50069 -11.26161,2.06962 -5.14161,0.56894 -9.9198,1.50866 -10.6182,2.08828 -0.6984,0.57962 -3.24162,0.9933 -5.65161,0.9193 -2.40999,-0.074 -7.15187,0.38223 -10.53752,1.01385 -3.38564,0.63162 -7.88564,1.18164 -10,1.22225 -2.11435,0.0406 -9.69428,0.97864 -16.84428,2.08449 -14.06774,2.17577 -23.99918,2.44838 -26.08651,0.71606 -0.72342,-0.60039 -5.2749,-1.21573 -10.1144,-1.36742 -4.8395,-0.15171 -11.04909,-0.81225 -13.79909,-1.4679 -2.75,-0.65565 -7.93532,-1.58144 -11.52293,-2.05731 -3.58761,-0.47587 -9.43761,-1.39765 -13,-2.04837 -3.56239,-0.65073 -9.13026,-1.35376 -12.37305,-1.56229 -3.32448,-0.21379 -6.61317,-1.02822 -7.54038,-1.86733 -1.70056,-1.53899 -6.05314,-2.02246 -27.563638,-3.06169 -6.6,-0.31886 -12.744894,-0.80269 -13.655319,-1.07516 -1.917847,-0.57398 -5.189394,3.57701 -6.240055,7.91751 -0.58626,2.42196 -0.913411,2.65036 -2.230475,1.5573 -1.855002,-1.53951 -1.053936,-9.43618 1.214715,-11.97429 2.168858,-2.42646 1.749272,-4.04423 -0.877899,-3.38485 -1.258968,0.31598 -3.569709,0.0876 -5.134979,-0.50752 -2.248651,-0.85495 -3.342307,-0.7568 -5.210967,0.46759 -2.700972,1.76975 -2.857344,2.95755 -1.121542,8.51927 0.952546,3.05206 1.755156,3.98425 3.430449,3.98425 1.506621,0 2.28638,0.69996 2.506521,2.25 0.248727,1.75131 1.076574,2.32218 3.735186,2.5757 2.154244,0.20543 4.119868,1.221 5.32258,2.75 1.250553,1.58982 2.9254,2.4243 4.86575,2.4243 1.753899,0 3.201768,0.63315 3.555434,1.55479 0.329726,0.85925 1.545901,1.44683 2.718615,1.31348 3.870543,-0.44015 6.454962,1.09479 7.146783,4.24463 0.864799,3.9374 3.288592,4.83578 5.541253,2.05386 2.40709,-2.97264 4.93395,-2.81477 4.93395,0.30824 0,2.23769 0.299081,2.41517 3.119228,1.85114 3.11854,-0.62369 3.11913,-0.62297 2.66932,3.275 -0.24745,2.14437 -0.6386,4.51679 -0.86923,5.27206 -0.31895,1.04449 1.25627,1.48683 6.58068,1.8479 3.85,0.26108 7.25552,0.88706 7.56782,1.39103 0.31805,0.51327 1.99319,0.20528 3.80823,-0.70019 2.88375,-1.43861 3.42662,-1.45154 4.93218,-0.11748 0.93047,0.82448 2.59177,1.66636 3.69177,1.87085 1.52459,0.28341 1.92356,1.02106 1.67843,3.10324 -0.23227,1.97299 0.12354,2.73145 1.28139,2.73145 0.88162,0 1.86098,0.67241 2.17635,1.49426 0.87488,2.27989 2.36383,0.74139 2.36383,-2.44249 0,-3.0104 3.34098,-8.03678 4.54483,-6.83753 0.39434,0.39284 -0.0554,2.34187 -0.99938,4.33121 -2.02575,4.26896 -1.49736,5.2093 2.02526,3.60429 3.03186,-1.38141 4.42929,-0.77904 4.42929,1.90928 0,2.28819 0.64436,2.35924 4,0.44098 3.49838,-1.99987 6.30283,-1.83624 9.32917,0.54427 2.44886,1.92628 2.77702,1.95217 5.68483,0.44848 1.69735,-0.87774 3.98501,-1.31046 5.08397,-0.96167 1.0989,0.34878 2.53891,0.2084 3.20002,-0.31195 0.6611,-0.52036 3.08404,-1.23298 5.38431,-1.58361 3.50721,-0.53461 4.27607,-0.34205 4.76326,1.19295 0.48,1.51233 1.5275,1.79742 6.02702,1.64031 4.52991,-0.15817 6.04752,-0.71826 9.02153,-3.32948 1.96652,-1.72662 3.83491,-3.13931 4.15198,-3.13931 0.31707,0 0.28102,1.575 -0.0801,3.5 -0.54693,2.91538 -0.36468,3.5 1.0911,3.5 0.96124,0 3.26309,-1.4625 5.11523,-3.25 3.1063,-2.99789 3.46675,-3.11545 4.64649,-1.51554 1.48569,2.01482 2.72898,1.31421 1.82913,-1.03075 -0.45511,-1.186 0.23191,-0.99822 2.65156,0.72472 l 3.26582,2.32547 2.68669,-1.98635 c 3.90384,-2.88624 7.148,-3.75893 7.148,-1.92284 0,2.45747 7.21448,3.12189 11.55151,1.06382 2.96105,-1.40511 4.05296,-1.51212 5.59603,-0.54846 1.5193,0.94881 2.85154,0.88004 6.41975,-0.3314 2.47643,-0.84077 5.81116,-1.52867 7.4105,-1.52867 1.59934,0 4.51318,-0.94715 6.47521,-2.10477 2.85091,-1.68208 5.16779,-2.09427 11.53685,-2.0525 6.34316,0.0416 8.1545,-0.27826 8.87593,-1.56738 0.81884,-1.46318 1.4198,-1.39878 6.22093,0.66661 4.22331,1.81681 6.37657,2.16142 10.48692,1.67833 4.25134,-0.49966 5.62375,-0.25287 7.70711,1.3859 1.39409,1.0966 3.82348,1.99381 5.39863,1.99381 1.57515,0 6.00418,0.9238 9.84227,2.0529 3.8381,1.12909 9.22836,2.19888 11.97836,2.37732 2.75,0.17844 6.29645,0.66836 7.88099,1.08872 2.16912,0.57544 3.10256,0.36839 3.77766,-0.83795 1.05209,-1.87998 7.91105,-4.01129 9.09593,-2.82641 0.44813,0.44813 -1.00082,1.52798 -3.21989,2.39966 -4.47775,1.75892 -5.02911,3.1078 -2.03469,4.97784 1.1,0.68696 2.01829,1.92827 2.04064,2.75847 0.0224,0.8302 1.35828,3.0506 2.96873,4.93421 2.67013,3.12307 3.15523,3.32128 5.50641,2.25 3.94298,-1.79654 7.13549,-1.41998 11.54129,1.36127 2.20953,1.39481 4.48517,2.24689 5.05697,1.8935 0.57181,-0.3534 3.05416,0.12681 5.51635,1.06713 2.59153,0.9897 6.0333,1.52007 8.17315,1.25944 2.84291,-0.34625 4.34918,0.0918 6.52319,1.89685 1.55469,1.29088 3.73994,2.34706 4.85609,2.34706 1.11615,0 3.78766,1.39259 5.93669,3.09465 3.80628,3.01463 4.10739,3.07934 11.6439,2.50249 15.80842,-1.21001 21.64115,-1.46514 22.42468,-0.98089 1.64909,1.01919 -2.39753,6.47538 -7.71706,10.40515 -3.02425,2.23415 -6.72993,5.90382 -8.23484,8.15483 -1.5049,2.251 -3.48908,5.22177 -4.40929,6.60171 -2.24431,3.36555 -3.86966,4.24943 -6.56859,3.57204 -6.22157,-1.56151 -10.89858,3.4977 -7.71921,8.35003 1.32291,2.01903 2.10968,2.3164 4.65148,1.75813 3.43687,-0.75486 4.74843,0.47912 4.82738,4.54186 0.0267,1.375 0.82111,3.40019 1.76531,4.50041 2.14515,2.49962 8.5405,6.819 10.99997,7.4293 0.15579,0.0387 2.46782,-1.03672 5.13786,-2.38973 z M 65.428242,660.49527 c 0,-0.275 0.225,-0.5 0.5,-0.5 0.275,0 0.5,0.225 0.5,0.5 0,0.27499 -0.225,0.5 -0.5,0.5 -0.275,0 -0.5,-0.22501 -0.5,-0.5 z m 332.441128,95.03179 c -2.52094,-1.90674 -4.44113,-1.92048 -4.44113,-0.0318 0,1.01995 1.02124,1.5 3.19113,1.5 3.02058,0 3.08739,-0.0785 1.25,-1.46821 z m -9.44113,-2.01275 c 0,-1.82569 -4.75991,-3.15913 -6.18608,-1.73297 -1.61494,1.61495 -4.4e-4,3.21393 3.2451,3.21393 1.93072,0 2.94098,-0.50873 2.94098,-1.48096 z M 87.109492,654.46654 c 0.722951,-2.201 -13.176312,-7.986 -16.303873,-6.78584 -2.088943,0.8016 0.259212,3.31457 3.097184,3.31457 1.22632,0 3.75872,1.09582 5.627556,2.43514 3.425069,2.45463 6.954705,2.93716 7.579133,1.03613 z M 16.992535,786.70213 c 0.375531,-0.98622 0.934692,-1.54121 1.242579,-1.23333 0.307887,0.3079 6.34e-4,1.11479 -0.682784,1.79313 -0.987616,0.98027 -1.10248,0.86541 -0.559795,-0.5598 z M 292.42824,478.02467 c -7.23174,-0.76395 -14.191,-3.86507 -16.46626,-7.33758 -1.65122,-2.52006 -1.01783,-8.90823 1.87721,-18.93313 4.84357,-16.77225 5.65482,-20.02625 5.12482,-20.55626 -0.32232,-0.32232 -2.06918,-0.0497 -3.8819,0.60576 6.02211,-18.74111 -6.4799,-96.43224 -22.34189,-107.0834 l -5.28282,-5.87281 -3.60181,-4.17599 c -3.36395,-3.90022 -3.57323,-4.53324 -3.16908,-9.58549 0.47334,-5.91714 -1.15798,-12.26453 -6.19297,-24.09657 -4.37003,-10.26942 -6.48762,-28.42876 -3.64645,-31.26994 0.78038,-0.78037 1.61295,-2.72501 1.85017,-4.32143 l 0.43132,-2.90257 0.13452,3 c 0.074,1.65 -0.27574,3.64839 -0.77715,4.44087 -0.58923,0.93126 -0.40281,2.42489 0.5271,4.22314 1.30776,2.52892 1.2865,2.72384 -0.23345,2.14058 -1.51293,-0.58057 -1.61275,0.20094 -1.04792,8.20459 0.53951,7.64499 1.17238,9.94245 4.66042,16.91855 2.21988,4.43975 4.03614,8.55297 4.03614,9.14049 0,1.36452 6.17033,9.43178 7.214,9.43178 1.28994,0 0.89281,-3.89277 -0.71415,-7.00029 -1.34717,-2.60514 -1.32688,-3.49238 0.19897,-8.70034 1.29611,-4.42386 1.72595,-10.06867 1.81225,-23.79937 0.0976,-15.52084 0.40853,-18.89525 2.25781,-24.5 2.26538,-6.86587 2.64406,-12.75765 2.35702,-36.67213 -0.15716,-13.09369 0.89088,-18.5821 4.88163,-25.5643 0.54586,-0.95504 0.99247,-2.3391 0.99247,-3.07569 0,-1.84912 4.26163,-5.68788 6.31445,-5.68788 0.92705,0 2.59013,0.90458 3.69574,2.01019 2.55913,2.55913 8.8615,1.84877 13.98981,-1.57685 2.73816,-1.82904 5.48093,-2.48593 12.60069,-3.01785 8.30491,-0.62045 9.22306,-0.50997 10.5,1.26351 0.76962,1.06888 1.9242,2.25669 2.56574,2.63957 1.66013,0.99082 10.9732,-1.17942 12.39072,-2.88743 0.65326,-0.78713 2.49709,-1.43114 4.09741,-1.43114 3.86255,0 9.7216,-2.51371 10.48283,-4.49744 0.3351,-0.87327 2.28946,-2.44492 4.34302,-3.49256 3.66237,-1.86841 6.66491,-2.11729 23.51959,-1.94951 3.3,0.0329 8.25,0.0509 11,0.0402 6.87011,-0.0269 12.40938,3.86686 14.5,10.19256 0.825,2.49625 2.7375,5.67998 4.25,7.07496 2.33019,2.14914 2.75195,3.34507 2.76277,7.83408 0.007,2.9173 1.16894,8.8924 2.58586,13.29775 2.83428,8.81201 3.43864,12.08391 3.879,21 0.34841,7.05435 1.02602,9.1292 4.08227,12.5 2.65845,2.93206 3.92104,7.35229 5.42714,19 0.6045,4.675 1.77429,10.88661 2.59954,13.80358 1.28058,4.52644 1.78713,5.21259 3.45693,4.68261 1.6255,-0.51591 1.95712,-0.14433 1.96023,2.19642 0.002,1.54957 1.01455,4.35507 2.25,6.23446 1.23544,1.87939 2.99564,4.80439 3.91156,6.5 l 1.6653,3.08293 2.06274,-4.5 c 1.1345,-2.475 2.07262,-5.09282 2.0847,-5.81739 0.0143,-0.85956 0.71674,-1.09687 2.02118,-0.68286 2.74996,0.87281 4.00623,-2.75592 4.71674,-13.6243 0.67511,-10.32677 -0.009,-13.87545 -2.676,-13.87545 -1.05706,0 -2.20004,0.45 -2.53996,1 -0.33992,0.55 -1.2968,1 -2.1264,1 -1.11549,0 -1.31681,-0.58606 -0.77291,-2.25 0.4045,-1.2375 0.69368,-3.825 0.64262,-5.75 -0.072,-2.71585 0.0583,-2.98812 0.58192,-1.21525 0.37112,1.25661 1.79977,2.84478 3.17477,3.52926 3.78961,1.8865 5.12654,5.78824 5.12391,14.95387 -0.002,8.02534 -4.98893,32.65962 -7.13449,35.24487 -0.50279,0.60583 -0.48047,1.67815 0.0525,2.52079 1.61849,2.55901 1.04561,9.31068 -1.08678,12.8083 -1.19659,1.96269 -3.66699,4.02614 -5.98609,5 l -3.94868,1.65816 -0.0207,8 c -0.0122,4.70714 -1.07301,12.93929 -2.57732,20 -1.40615,6.6 -2.98956,14.025 -3.51869,16.5 -0.52912,2.475 -1.06141,11.925 -1.18285,21 l -0.22081,16.5 3.68556,7 c 2.02705,3.85 4.85409,8.32441 6.28231,9.94314 2.27583,2.57941 2.51537,3.5063 1.9383,7.5 -0.77249,5.34601 -1.57217,6.50529 -6.73611,9.76514 -2.12261,1.33995 -5.77065,4.48842 -8.10675,6.9966 -4.10087,4.40294 -4.49873,4.58336 -11.52799,5.22767 -6.90443,0.63286 -7.45616,0.87139 -10.68018,4.61739 -1.86981,2.17253 -4.40214,5.10068 -5.6274,6.50699 -1.22526,1.40631 -3.59361,4.12442 -5.26302,6.04024 -4.94186,5.67133 -11.95199,10.46778 -18.14661,12.41622 -7.57825,2.38366 -5.00087,3.22114 3.0108,0.97832 9.10756,-2.54961 30.45376,-13.66859 45.18747,-23.53762 56.8406,-20.73249 40.6304,-45.01648 20.76487,-18.45409 -9.902,13.34419 -18.74144,19.98554 -44.28125,33.26993 -20.91001,10.87622 -26.34215,12.46502 -39.67159,11.60325 -5.68063,-0.36726 -10.31427,-0.93897 -10.29699,-1.27046 0.0983,-1.88458 5.70018,-4.45057 9.25792,-4.24065 5.5608,0.32812 17.02626,-4.21475 18.74564,-7.42742 0.7382,-1.37934 3.28414,-3.36692 5.65765,-4.41684 2.52095,-1.11513 4.68631,-2.88429 5.20725,-4.25447 0.49047,-1.29004 1.64332,-2.96927 2.56188,-3.7316 2.10652,-1.74826 4.53824,-6.39263 4.53824,-8.66763 0,-0.95436 0.82365,-2.66421 1.83033,-3.79966 1.00669,-1.13545 5.78394,-8.70253 10.61613,-16.81573 7.19422,-12.07904 9.4951,-15.14993 12.70129,-16.95192 2.15353,-1.21035 4.09765,-3.12227 4.32027,-4.24872 0.22263,-1.12644 0.64711,-10.0289 0.9433,-19.78323 0.38237,-12.59286 1.09582,-19.98657 2.46059,-25.5 3.25451,-13.14761 4.53535,-23.94219 3.33338,-28.09271 -0.58489,-2.01968 -2.30479,-9.43504 -3.82201,-16.47859 -2.06754,-9.59838 -3.35572,-13.45078 -5.14234,-15.37858 -2.73826,-2.95463 -3.60021,-2.4497 -5.43702,3.18503 -1.09646,3.36357 -1.78124,4.04539 -4.30392,4.28527 -1.65,0.1569 -3.90816,0.7396 -5.01813,1.29489 -1.63895,0.81992 -4.23411,-0.12615 -13.81232,-5.03527 -13.57103,-6.95558 -16.43623,-7.5089 -16.27603,-3.14319 0.0586,1.59593 0.39299,2.72588 0.74317,2.51101 1.27098,-0.77989 3.01214,2.54302 2.37854,4.5393 -0.77343,2.43687 -1.81746,2.59368 -3.53001,0.53018 -1.11704,-1.34595 -1.6469,-1.28934 -4.67961,0.5 -1.88096,1.1098 -4.30917,2.01781 -5.39601,2.01781 -1.08685,0 -4.19617,1.125 -6.9096,2.5 -2.71343,1.375 -6.41097,2.50251 -8.21676,2.50558 -1.80578,0.003 -4.92154,0.46063 -6.92391,1.01681 -2.59764,0.72153 -4.45985,0.67483 -6.5,-0.16301 -1.57263,-0.64584 -5.98269,-1.49509 -9.80013,-1.88723 -6.00905,-0.61725 -7.25264,-1.09953 -9.26378,-3.59256 -1.94487,-2.41089 -2.481,-2.63544 -3.29388,-1.37959 -0.83684,1.29287 -0.97303,1.2665 -0.98623,-0.19098 -0.008,-0.93004 0.43469,-1.9691 0.98469,-2.30902 1.26545,-0.78209 1.31967,-5.5 0.0632,-5.5 -0.51524,0 -3.77774,1.93001 -7.25,4.28891 -3.47227,2.3589 -8.56321,5.56683 -11.31321,7.12873 -2.75,1.5619 -5.81736,3.79439 -6.81635,4.96109 -3.27471,3.82446 -5.63933,10.03548 -5.66169,14.87127 -0.0169,3.66189 -0.38547,4.75 -1.60882,4.75 -0.87278,0 -2.09644,-1.35 -2.71924,-3 -0.62281,-1.65 -1.53186,-3 -2.02013,-3 -0.48826,0 -0.61094,0.72134 -0.27263,1.60298 1.45736,3.79781 3.59729,16.30973 3.59804,21.03732 7.5e-4,4.72902 2.37694,10.86236 7.88777,20.3597 0.47871,0.825 1.60036,3.075 2.49256,5 0.8922,1.925 3.12033,5.525 4.9514,8 1.83107,2.475 3.59802,6.16048 3.92654,8.18996 0.5261,3.24996 0.33768,3.72694 -1.58006,4 -1.98985,0.28334 -2.299,1.28188 -3.5894,11.59356 l -1.412,11.28353 5.662,5.04646 c 3.11411,2.77555 5.66201,5.61324 5.66201,6.30596 0,0.69273 1.13763,1.77784 2.52806,2.41136 1.39044,0.63353 2.80784,1.94326 3.14979,2.91052 0.34194,0.96726 2.05604,5.58365 3.80911,10.25865 1.75307,4.675 3.73732,10.75 4.40945,13.5 0.67212,2.75 2.25063,6.125 3.5078,7.5 1.25716,1.375 3.45093,4.64124 4.87502,7.25832 l 2.58928,4.75832 -2.68426,1.37642 c -2.45736,1.26008 -17.53916,4.7966 -19.04121,4.46497 -0.35367,-0.0781 -3.56804,-0.45097 -7.14304,-0.82862 z m 15.60109,-2.06784 2.73129,-1.03843 -3.41619,-2.92093 c -5.30518,-4.53605 -7.91619,-3.68523 -7.91619,2.57959 0,2.00831 0.49748,2.41821 2.9349,2.41821 1.6142,0 4.16398,-0.46731 5.66619,-1.03844 z M 255.92824,315.99527 c -0.33992,-0.55001 -1.06803,-1 -1.61803,-1 -0.55,0 -0.72189,0.44999 -0.38197,1 0.33992,0.55 1.06803,1 1.61803,1 0.55,0 0.72189,-0.45 0.38197,-1 z m -2.5,-10.44099 c 0,-3.21145 -1.6276,-4.12338 -2.94983,-1.65276 -1.55898,2.91298 -1.28502,4.09375 0.94983,4.09375 1.45377,0 2,-0.66668 2,-2.44099 z m 178.81144,-0.59798 c 3.11423,-2.90135 2.73826,-3.56631 -1.77314,-3.13608 -4.56553,0.43539 -7.3,2.76411 -4.974,4.23595 2.27795,1.44143 4.38872,1.09735 6.74714,-1.09987 z m -87.31001,-7.57125 c 0.55079,-1.69722 1.61827,-3.8291 2.37218,-4.7375 1.16938,-1.40902 1.13143,-1.98225 -0.25833,-3.90197 -0.896,-1.23768 -2.34219,-3.24673 -3.21377,-4.46457 -0.87157,-1.21784 -1.80983,-5.04284 -2.08501,-8.5 -0.27518,-3.45716 -1.20095,-8.21355 -2.05726,-10.56974 -1.33092,-3.66213 -1.36556,-4.86383 -0.23865,-8.2784 1.93795,-5.87204 0.43531,-11.04647 -3.52059,-12.12338 -2.44298,-0.66505 -3.32493,-0.42455 -4.75,1.29532 -2.16832,2.61688 -2.25474,8.01371 -0.19219,12.00224 1.31699,2.54678 1.37339,3.83657 0.36484,8.34324 -0.89866,4.01563 -0.91292,6.13412 -0.0578,8.58709 1.58248,4.53951 1.38884,7.07008 -0.75431,9.85759 -1.95269,2.5398 -1.7315,6.10029 0.37898,6.10029 0.69094,0 3.34215,0.92269 5.89157,2.05042 4.10067,1.81392 4.5137,2.27768 3.58087,4.02067 -0.57994,1.08363 -0.76667,2.43586 -0.41496,3.00495 1.18571,1.91851 3.94572,0.42206 4.95444,-2.68625 z m -50.96318,-6.97022 c 1.90396,-0.79553 3.46175,-2.11537 3.46175,-2.93298 0,-0.92883 0.96177,-1.48658 2.56336,-1.48658 2.2896,0 2.52989,-0.34709 2.25,-3.25 l -0.31336,-3.25 -10.0999,-0.28333 c -11.14854,-0.31274 -11.30263,-0.24057 -13.16537,6.16589 -1.02259,3.51696 -0.92201,4.05964 1.06819,5.76328 2.48155,2.12424 8.09902,1.83765 14.23533,-0.72628 z m 134.46175,-0.41956 c 0,-1.10001 -0.45,-2 -1,-2 -0.55,0 -1,0.89999 -1,2 0,1.1 0.45,2 1,2 0.55,0 1,-0.9 1,-2 z m 6,-1.5 c 0,-0.825 -0.45,-1.5 -1,-1.5 -0.55,0 -1,0.675 -1,1.5 0,0.82499 0.45,1.5 1,1.5 0.55,0 1,-0.67501 1,-1.5 z m -52.5,-6.99793 c 10.177,-0.0558 13.0377,-0.76976 14.57213,-3.63686 0.81857,-1.52951 0.68713,-2.58369 -0.55933,-4.48602 -2.31083,-3.52677 -3.62919,-3.76772 -10.78961,-1.97196 -3.49303,0.87602 -7.71497,1.59276 -9.38209,1.59276 -3.37316,0 -5.75904,2.17648 -6.68858,6.10154 -0.72521,3.06227 0.13128,4.25835 2.29525,3.20527 0.85372,-0.41546 5.60223,-0.77759 10.55223,-0.80473 z m -8.5,-3.50207 c 0,-0.73334 0.3,-1.03333 0.66667,-0.66668 0.36666,0.36667 0.36666,0.96668 0,1.33335 -0.36667,0.36665 -0.66667,0.0667 -0.66667,-0.66667 z m -68.45766,-5.18658 c 6.438,-3.10578 11.45766,-6.83551 11.45766,-8.51331 0,-1.49423 -3.7432,-1.16991 -15.5,1.34294 -9.02227,1.92839 -20.21597,2.13144 -24.2976,0.44079 -3.64664,-1.51049 -4.35552,-3.57247 -0.9524,-2.77031 1.2375,0.2917 6.09853,0.8363 10.80228,1.21022 8.31645,0.66111 8.6419,0.60446 11.80213,-2.05471 3.05382,-2.56961 3.64487,-2.69408 9.79917,-2.06356 4.41867,0.45272 7.00431,0.29341 7.94788,-0.48969 1.06308,-0.88229 1.74228,-0.8754 2.83164,0.0287 1.15572,0.95916 1.76442,0.6837 3.14489,-1.42316 2.28993,-3.49489 2.8327,-19.95335 0.76769,-23.27902 -0.77102,-1.24173 -4.87672,-3.93964 -9.12377,-5.99536 -6.58249,-3.18616 -8.91999,-3.7896 -15.84136,-4.08957 -5.18869,-0.22487 -10.85416,0.25653 -15.69577,1.33368 -6.83246,1.52008 -8.01295,2.15237 -12.02357,6.44005 -6.36214,6.80164 -7.81451,10.08479 -7.45979,16.86318 0.28939,5.53008 1.8871,7.76993 2.64333,3.70571 0.72763,-3.91046 10.41158,-11.56594 17.03261,-13.46483 2.13786,-0.61313 3.55355,-0.42165 5.15002,0.69656 2.13636,1.49637 1.99801,1.60791 -4.66284,3.75916 -11.92775,3.85231 -13.23605,5.03768 -16.62502,15.06286 -1.73635,5.13642 -1.27704,6.44624 2.26048,6.44624 1.55833,0 2.98467,0.454 3.16964,1.00891 0.18497,0.55492 3.25997,2.82155 6.83333,5.03697 6.35599,3.9406 6.66043,4.01877 14.02427,3.60091 5.21701,-0.29604 9.05809,-1.16564 12.5151,-2.83337 z m 64.18742,-0.50272 c 0.50794,-1.5238 -2.85791,-2.58256 -4.13862,-1.30185 -0.7659,0.7659 -0.64609,1.34495 0.41722,2.01652 1.7282,1.09152 3.21449,0.80608 3.7214,-0.71467 z m 21.20239,-8.77479 c 3.61232,-2.45117 7.13416,-5.3745 7.82632,-6.4963 0.9294,-1.50628 2.31044,-2.03962 5.28139,-2.03962 4.73466,0 6.12073,-2.06008 3.40505,-5.06087 -1.37811,-1.5228 -1.52311,-2.26093 -0.62128,-3.16276 1.63681,-1.63681 1.46768,-7.00994 -0.40042,-12.72134 -1.32929,-4.06407 -2.35314,-5.2708 -6.52276,-7.6879 -12.2971,-7.12852 -12.97666,-7.36713 -20.98135,-7.36713 -11.83288,0 -24.87953,2.58791 -27.96909,5.54789 -1.40769,1.34866 -3.06271,2.45211 -3.67781,2.45211 -1.96852,0 -7.27233,6.07617 -7.26846,8.32692 0.002,1.1952 0.90205,3.64646 2,5.44725 1.09794,1.80079 1.99626,4.55261 1.99626,6.11514 0,1.56254 0.92387,4.01549 2.05305,5.451 2.02688,2.57676 2.19166,2.60507 12.926,2.22084 8.71148,-0.31182 10.98083,-0.10809 11.41557,1.02483 0.72817,1.89759 8.1157,1.8509 13.60538,-0.086 5.52218,-1.94834 9,-1.93877 9,0.0248 0,2.82584 -5.21301,3.76438 -21.5,3.87075 -13.23127,0.0864 -16,0.35437 -16,1.54845 0,3.73133 13.89458,8.30337 22.93215,7.54586 4.93068,-0.41328 7.04094,-1.2496 12.5,-4.95389 z m -9.68215,-27.27316 c -6.33353,-0.44308 -6.9124,-2.24602 -1.5397,-4.79553 3.31132,-1.57133 4.13387,-1.61046 7.64932,-0.36394 2.39314,0.84857 4.26022,2.27973 4.75747,3.64671 0.90105,2.47705 1.57527,2.3832 -10.86709,1.51276 z M 328.38383,386.4259 c -1.35057,-0.74786 -3.08562,-1.37572 -3.85567,-1.3952 -2.66975,-0.0676 -12.10014,-5.46082 -12.66601,-7.24369 -0.31278,-0.98546 -1.36613,-1.79174 -2.34078,-1.79174 -1.71553,0 -4.09313,-3.72404 -4.09313,-6.41105 0,-0.72432 -1.76641,-2.54107 -3.92535,-4.03722 -5.05521,-3.50326 -5.8238,-5.3153 -2.01757,-4.75666 2.81929,0.41377 2.83811,0.38242 1.76296,-2.93841 -1.76617,-5.45519 -2.45368,-6.37212 -4.54948,-6.06762 -1.19064,0.17299 -2.59629,-0.63001 -3.50098,-2 -0.83138,-1.25897 -3.14464,-4.06448 -5.14059,-6.23446 -5.60691,-6.09579 -4.27218,-9.9878 2.01294,-5.86963 2.41128,1.57994 2.63033,1.57994 3.5145,0 1.70343,-3.04385 9.52808,-1.25459 16.92233,3.86963 3.8182,2.64602 4.02833,2.68123 5.33513,0.89407 1.25212,-1.71237 1.86676,-1.76318 7.72325,-0.6384 3.49957,0.67213 9.73786,1.27616 13.86286,1.34231 6.52003,0.10454 8.6359,-0.35489 16.19339,-3.51615 4.78137,-2.00004 10.09845,-3.63641 11.81575,-3.63641 3.60966,0 6.01345,-1.1407 11.25475,-5.34085 3.03441,-2.43164 4.80161,-3.04718 9.11831,-3.17604 3.95429,-0.11804 5.96115,-0.72508 7.67467,-2.32148 1.27614,-1.1889 2.6854,-2.16163 3.13169,-2.16163 1.67869,0 0.71965,6.24763 -1.68856,11 -1.375,2.71343 -2.5,5.78778 -2.5,6.8319 0,1.04411 -0.9,3.04255 -2,4.44097 -1.1,1.39842 -2,2.89261 -2,3.3204 0,0.4278 -0.92835,1.76601 -2.063,2.97378 -1.16142,1.23628 -2.66796,5.08736 -3.44727,8.81204 -1.41459,6.76104 -5.49822,13.62091 -8.10842,13.62091 -1.53077,0 -5.38131,3.4954 -5.38131,4.88499 0,1.2903 -4.62818,4.11501 -6.74231,4.11501 -0.99697,0 -2.85323,0.72883 -4.12501,1.61962 -1.55256,1.08746 -3.54261,1.45461 -6.05661,1.11741 -2.05935,-0.27623 -4.48983,-0.085 -5.40107,0.42496 -2.84417,1.59168 -15.9895,1.78033 -18.71942,0.26864 z m -10.95559,-12.93063 c 0,-0.275 -0.225,-0.5 -0.5,-0.5 -0.275,0 -0.5,0.225 -0.5,0.5 0,0.27499 0.225,0.5 0.5,0.5 0.275,0 0.5,-0.22501 0.5,-0.5 z m 42.30031,-1.84022 c 0.31815,-0.82909 2.22537,-1.36608 5.0009,-1.40804 4.13538,-0.0625 5.86491,-0.62297 9.5665,-3.10003 0.77594,-0.51925 1.57737,-3.39631 1.8523,-6.6496 l 0.48459,-5.73435 -3.8523,4.36611 c -5.23206,5.92991 -5.03156,5.8335 -12.16804,5.85081 -10.18042,0.0247 -13.3832,3.09798 -6.42916,6.16926 4.75637,2.10067 4.92723,2.11626 5.54521,0.50584 z m -10.12115,-8.17559 c 1.47354,-1.22971 4.64746,-2.53102 7.05315,-2.89179 3.38763,-0.508 4.75664,-1.30369 6.07084,-3.52846 0.93327,-1.57988 1.69685,-3.33251 1.69685,-3.8947 0,-0.64427 -4.52894,-0.99727 -12.25,-0.95479 -7.09125,0.039 -15.61898,-0.57342 -20.25,-1.45425 -4.4,-0.83689 -8.20797,-1.32983 -8.46215,-1.09543 -0.25417,0.2344 0.0986,1.32402 0.78388,2.42138 1.39243,2.22963 0.79826,3.91385 -1.38075,3.91385 -0.79254,0 -1.44098,0.85986 -1.44098,1.91079 0,2.2109 7.12915,6.08921 11.19328,6.08921 1.40901,0 3.13628,0.69216 3.83839,1.53816 1.76575,2.12759 9.60423,0.90303 13.14749,-2.05397 z m -3.4935,-16.99732 c 4.54444,-1.89878 3.67882,-3.09229 -1.09911,-1.51543 -1.9511,0.64392 -4.0278,0.87389 -4.61489,0.51105 -1.4824,-0.91618 -4.23621,0.28044 -3.47603,1.51045 0.90339,1.4617 5.02351,1.23482 9.19003,-0.50607 z m -51.20958,10.43777 c -0.36228,-1.14146 -0.40348,-2.33058 -0.0916,-2.6425 0.83379,-0.83379 3.61547,1.73618 3.61547,3.3403 0,2.16265 -2.79149,1.60988 -3.52392,-0.6978 z m 29.07969,-20.83441 c -0.68886,-1.1146 0.36181,-4.09023 1.44423,-4.09023 1.08242,0 2.13309,2.97563 1.44423,4.09023 -0.30925,0.50038 -0.95915,0.90977 -1.44423,0.90977 -0.48508,0 -1.13498,-0.40939 -1.44423,-0.90977 z m 8.06135,0.0993 c -0.28635,-0.46333 -0.27027,-1.79984 0.0357,-2.97003 0.46475,-1.7772 1.07442,-2.03107 3.70176,-1.54131 1.72996,0.32247 3.55348,0.9574 4.05226,1.41095 0.49879,0.45356 2.26022,-0.31409 3.91428,-1.70591 2.07256,-1.74394 3.65574,-2.3297 5.09312,-1.88445 2.28757,0.70863 3.10394,0.74908 6.08572,0.30147 1.43341,-0.21518 2,0.26636 2,1.69977 0,1.49189 -0.70034,2.02566 -2.75662,2.10101 -1.51614,0.0556 -3.56877,0.83598 -4.56138,1.73428 -1.43003,1.29416 -2.4964,1.43493 -5.13575,0.67797 -1.83205,-0.52542 -3.78679,-0.67362 -4.34387,-0.32932 -1.68433,1.04097 -7.52851,1.4064 -8.08526,0.50556 z m -14.21261,-2.34401 c -0.44208,-0.71531 -0.27432,-0.88306 0.44098,-0.44099 1.15275,0.71244 1.54767,1.59549 0.71353,1.59549 -0.24254,0 -0.76207,-0.51953 -1.15451,-1.1545 z m -15.05213,-24.36958 c -0.78931,-2.05691 1.041,-3.92267 3.0804,-3.14008 2.15343,0.82634 1.96386,2.38153 -0.44762,3.6721 -1.59947,0.85602 -2.14222,0.74633 -2.63278,-0.53202 z m 68.8077,-5.71583 c -1.72489,-1.72493 -1.40987,-2.76012 0.83992,-2.76012 1.1,0 2,0.64843 2,1.44098 0,2.01879 -1.46142,2.6976 -2.83992,1.3191 z M 242.79795,274.74527 c 0.33164,-1.23751 0.60913,-4.4625 0.61664,-7.16668 0.0155,-5.5715 0.77831,-5.53917 2.0625,0.0874 0.59166,2.59238 0.48457,4.71747 -0.33156,6.57923 -1.44799,3.30314 -3.19872,3.67602 -2.34758,0.5 z m -7.29076,-34.33334 c 0.048,-1.16495 0.28494,-1.4019 0.60416,-0.60417 0.28887,0.72187 0.25335,1.58437 -0.0789,1.91667 -0.3323,0.33229 -0.56864,-0.25834 -0.52522,-1.3125 z m -0.884,-5.91667 c 0.0204,-1.65 0.2445,-2.20394 0.49804,-1.23097 0.25354,0.97297 0.23687,2.32297 -0.0371,3 -0.27393,0.67703 -0.48137,-0.11903 -0.46099,-1.76903 z m -0.89529,-8.5 c 0,-3.025 0.18747,-4.2625 0.41659,-2.75 0.22913,1.5125 0.22913,3.9875 0,5.5 -0.22912,1.5125 -0.41659,0.275 -0.41659,-2.75 z m 202,-1 c 0,-3.025 0.18747,-4.2625 0.41659,-2.75 0.22913,1.5125 0.22913,3.9875 0,5.5 -0.22912,1.5125 -0.41659,0.275 -0.41659,-2.75 z m -203.14177,-8 c 0,-1.375 0.22698,-1.9375 0.50439,-1.25 0.27741,0.6875 0.27741,1.8125 0,2.5 -0.27741,0.6875 -0.50439,0.125 -0.50439,-1.25 z m 202.12812,-3.5 c 0.008,-2.75 0.20172,-3.75631 0.43157,-2.23625 0.22986,1.52006 0.22371,3.77006 -0.0136,5 -0.23736,1.22994 -0.42542,-0.0137 -0.41792,-2.76375 z m -203.12812,-1.5 c 0,-1.375 0.22698,-1.9375 0.50439,-1.25 0.27741,0.6875 0.27741,1.8125 0,2.5 -0.27741,0.6875 -0.50439,0.125 -0.50439,-1.25 z m -0.81508,-10.5 c 0.004,-4.4 0.17944,-6.07561 0.39069,-3.72357 0.21124,2.35204 0.20827,5.95204 -0.007,8 -0.21487,2.04796 -0.38771,0.12357 -0.38408,-4.27643 z m 204.65719,-0.5 c 0,-0.73333 0.3,-1.03333 0.66667,-0.66667 0.36666,0.36667 0.36666,0.96667 0,1.33334 -0.36667,0.36666 -0.66667,0.0667 -0.66667,-0.66667 z m 1,-4 c 0,-0.73333 0.3,-1.03333 0.66667,-0.66667 0.36666,0.36667 0.36666,0.96667 0,1.33334 -0.36667,0.36666 -0.66667,0.0667 -0.66667,-0.66667 z m -0.84211,-4 c 0,-1.375 0.22698,-1.9375 0.50439,-1.25 0.27741,0.6875 0.27741,1.8125 0,2.5 -0.27741,0.6875 -0.50439,0.125 -0.50439,-1.25 z m -205.11112,-1.81462 c -0.0257,-0.72304 0.81515,-3.42304 1.86861,-6 1.05346,-2.57696 2.22227,-6.48538 2.59735,-8.68538 0.37508,-2.2 1.06717,-5.8 1.53796,-8 l 0.856,-4 -0.43745,4.5 c -0.24059,2.475 -0.84829,6.525 -1.35044,9 -0.99611,4.90967 -4.99646,15.30909 -5.07203,13.18538 z m 204.25289,-9.18538 c 0,-3.025 0.18747,-4.2625 0.41659,-2.75 0.22913,1.5125 0.22913,3.9875 0,5.5 -0.22912,1.5125 -0.41659,0.275 -0.41659,-2.75 z m -1.29966,-7 c 0,-0.73333 0.3,-1.03333 0.66667,-0.66667 0.36666,0.36667 0.36666,0.96667 0,1.33334 -0.36667,0.36666 -0.66667,0.0667 -0.66667,-0.66667 z m -0.884,-3.16821 c -0.0638,-0.91752 -0.37498,-2.49252 -0.69151,-3.5 -0.54548,-1.73622 -0.51588,-1.73885 0.56728,-0.0504 0.62853,0.97978 0.9397,2.55478 0.6915,3.5 -0.40654,1.54825 -0.46276,1.55325 -0.56727,0.0504 z m -2.116,-6.33179 c 0,-0.275 0.225,-0.5 0.5,-0.5 0.275,0 0.5,0.225 0.5,0.5 0,0.275 -0.225,0.5 -0.5,0.5 -0.275,0 -0.5,-0.225 -0.5,-0.5 z m -192.48959,-3.5 c 0.36588,-1.375 2.20072,-3.78115 4.07741,-5.34699 2.32619,-1.94089 3.41218,-3.70012 3.41218,-5.5275 0,-4.28823 3.1176,-8.05524 11.75,-14.19754 3.87145,-2.75469 4.25,-3.40679 4.25,-7.32102 0,-4.55198 2.6691,-8.29875 5.19214,-7.28852 0.86466,0.34622 0.72676,0.55043 -0.40696,0.60262 -2.33251,0.10739 -3.78518,3.14622 -3.78518,7.91819 0,3.62609 -0.37612,4.19114 -4.33364,6.5104 -6.36915,3.73257 -11.66636,9.98011 -11.66636,13.75932 0,2.15474 -0.79858,3.73136 -2.61279,5.15842 -1.43704,1.13038 -3.49687,3.44514 -4.57741,5.14392 -1.75389,2.75739 -1.89327,2.82054 -1.29939,0.5887 z m 189.72036,-2.23077 c -1.23276,-2.25057 -2.09403,-4.2393 -1.91393,-4.4194 0.1801,-0.1801 1.35291,1.49709 2.60624,3.72709 1.25333,2.23001 2.1146,4.21874 1.91393,4.41941 -0.20067,0.20067 -1.37348,-1.47653 -2.60624,-3.7271 z m -4.11673,-8.48717 c -1.51646,-3.6522 -7.74058,-10.18957 -10.81376,-11.35799 -1.33676,-0.50824 -3.76618,-0.92407 -5.39871,-0.92407 -2.0561,0 -4.03841,-1.07018 -6.45075,-3.48252 -1.91539,-1.91538 -4.80789,-4.16789 -6.42778,-5.00557 -3.18993,-1.64957 -8.02304,-8.97397 -8.02304,-12.15864 0,-2.73055 -2.47777,-6.00727 -3.40637,-4.50476 -1.35096,2.1859 -5.57858,1.32128 -6.59363,-1.34851 -0.53457,-1.40604 -1.74898,-2.5 -2.77525,-2.5 -1.00361,0 -2.34777,-0.52302 -2.98701,-1.16225 -1.59305,-1.59305 -12.36842,-2.97418 -13.81803,-1.77111 -1.05187,0.87298 -7.90539,1.13537 -19.41971,0.7435 -2.475,-0.0842 -4.80527,-0.61289 -5.17839,-1.17479 -0.45435,-0.68425 -1.54317,-0.62761 -3.29705,0.17151 -3.50208,1.59566 -7.59205,1.45667 -9.96569,-0.33866 -2.50092,-1.8916 -3.55887,-1.85853 -3.55887,0.11126 0,1.23097 -0.65493,1.43561 -2.9684,0.92749 -2.40845,-0.52899 -3.72892,-0.0408 -7,2.5879 -2.21738,1.78194 -4.0316,3.83957 -4.0316,4.57251 0,1.82412 -2.92582,1.68954 -3.63837,-0.16736 -1.1421,-2.97626 -9.22638,-0.65854 -16.19381,4.64267 -1.53565,1.16841 -3.28731,1.58343 -5.12872,1.21515 -1.56277,-0.31255 -3.09667,-0.0737 -3.47684,0.54144 -0.37416,0.60541 -1.64889,1.10074 -2.83272,1.10074 -1.61302,0 -1.16925,-0.50125 1.7708,-2.00017 2.15777,-1.1001 4.7405,-1.74078 5.73939,-1.42374 1.10324,0.35015 2.49217,-0.17894 3.53823,-1.34785 1.75143,-1.95711 12.66079,-5.74394 19.47599,-6.76044 2.06467,-0.30795 4.53967,-1.37816 5.5,-2.37824 4.07724,-4.24604 8.74514,-5.12069 13.65728,-2.55905 2.21091,1.15297 3.65424,1.27931 6,0.5252 4.53589,-1.4582 10.49882,-1.5089 15.45139,-0.13139 4.68643,1.30349 9.66013,0.83322 17.41975,-1.64706 4.25928,-1.36144 4.97024,-1.36401 6.5,-0.0235 3.26209,2.85846 8.13245,4.74628 12.24489,4.74628 3.22763,0 4.76336,0.63678 7.04966,2.92308 1.6077,1.60769 2.92308,3.80273 2.92308,4.87787 0,3.54913 2.89423,8.96311 6.06739,11.34974 1.71794,1.29212 4.95219,4.03681 7.18721,6.09931 2.731,2.52019 5.00586,3.75 6.93666,3.75 4.59567,0 9.20354,2.44508 12.47805,6.62126 3.51853,4.48738 5.68789,8.35487 5.04631,8.99645 -0.24553,0.24553 -0.96624,-0.80551 -1.60158,-2.33565 z"
         id="path1329"
         sodipodi:nodetypes="cssccscssssssssssssssssssssssssscssssssssssssssssssssssssssssssssssssssssssssssssssssssssssssscsssssssssssssssccsssssssssssssssssssssssssssssssssssssssssssssssssssssssssssssssssssssssssssssssssssssscsssssssssssssssssssssssssssssssssssssssssssssssssssssssssssssssssssssscccssssscsssssssssssssssssssssssssscsssssssssssscssssssssssscsssscsssscsssssssssssccssssssssssssssssssssssssssssssssssscssssssssssssssssscsssssssscssssscsssssssssssssssssssssssssssssssssssssssscsssssssssssssssssssssssssssssssssssssssssssssssssssssssssssssssssssssssssssssssssssssssssssssssssssssssssssssssssssssssssssssssssssscsssssssssssssssssssssssssssssssssssssssssssssssssssssssssssssssssssssssssssssssssssssssssssssssscscccsssssssssssssssscsssssssssssssssssssssssssssssssssssssssssssssssssssssssssssssssssssssssssssssssssss" />
      <path
         style="fill:#666666"
         d="m 139.42824,811.31265 c -14.98816,-0.33105 -41.764857,-2.19908 -48.331898,-3.3718 -7.364564,-1.31514 -15.934353,-3.34062 -25.1681,-5.9485 -6.452506,-1.82237 -11.643076,-2.37914 -26.833424,-2.87827 l -18.833423,-0.61881 -2.713204,-3.03816 c -2.243274,-2.51195 -2.644216,-3.76158 -2.31489,-7.21489 0.294449,-3.08759 0.918817,-4.34192 2.394391,-4.81025 1.532622,-0.48644 1.876547,-1.24919 1.481268,-3.28512 -0.928754,-4.78364 0.409398,-8.183 4.210079,-10.695 3.146741,-2.07979 4.76241,-2.38055 12.609203,-2.34721 19.142682,0.0813 25.142237,-0.0544 29.055757,-0.65746 3.047843,-0.46964 4.382973,-0.23067 5.372445,0.96158 0.724178,0.87258 2.191912,1.58651 3.26163,1.58651 1.55469,0 1.806539,0.45146 1.255167,2.25 -1.005521,3.27994 -2.391767,4.70968 -6.385265,6.58561 -3.836421,1.80216 -5.136401,5.16215 -2.995355,7.74195 1.069147,1.28825 1.501728,1.28152 3.54158,-0.055 1.278021,-0.83742 4.104981,-1.52256 6.282132,-1.52256 2.659154,0 4.886288,-0.76059 6.785184,-2.3172 7.741323,-6.34592 21.292913,-8.09453 51.260293,-6.61429 1.33846,0.0661 4.44737,1.65786 6.90869,3.53722 4.27473,3.26399 4.5605,3.33976 6.38143,1.69184 1.81125,-1.63916 2.11931,-1.61217 6.17865,0.5413 3.7132,1.96984 4.63052,2.10328 7.0091,1.01953 2.13151,-0.97119 3.15966,-0.98283 4.64908,-0.0527 3.1256,1.95196 8.35969,1.39833 12.34434,-1.30573 2.02618,-1.375 3.93347,-2.5 4.23842,-2.5 0.30495,0 1.97247,-0.61847 3.70559,-1.37438 1.73312,-0.7559 5.17613,-1.92432 7.65113,-2.59648 2.475,-0.67216 5.85,-2.03572 7.5,-3.03013 3.46273,-2.08688 21.92417,-7.99898 24.97811,-7.99898 1.13169,0 3.71321,-1.125 5.7367,-2.5 2.0235,-1.375 4.06486,-2.5 4.53636,-2.5 0.4715,0 3.08287,-1.41325 5.80305,-3.14055 2.72018,-1.72731 7.9898,-4.38084 11.71028,-5.89674 3.72047,-1.5159 8.48342,-4.26515 10.58432,-6.10946 2.1009,-1.84429 6.83863,-5.60325 10.52829,-8.35325 3.68965,-2.75 7.92221,-6.35001 9.40568,-8 9.39615,-10.45096 11.89336,-12.31564 17.41766,-13.00585 3.69567,-0.46173 6.9322,-0.19431 10.33958,0.85434 2.72798,0.83957 7.12443,1.81123 9.76988,2.15925 2.937,0.38638 4.66201,1.07648 4.43008,1.77229 -0.20891,0.62672 -3.94837,3.25442 -8.30991,5.83934 -7.83088,4.64104 -17.23462,12.88137 -20.72501,18.16095 -1.15678,1.74975 -5.95645,4.78525 -13.5,8.53794 -15.17004,7.54664 -23.3596,13.23308 -34.59839,24.02352 -5.85131,5.61787 -9.26684,11.28103 -8.02026,13.29804 0.3955,0.63994 2.31754,0.80174 4.90841,0.41322 3.4216,-0.5131 4.3827,-0.31458 4.89109,1.01026 0.43999,1.14661 1.34134,1.47098 2.95916,1.06494 1.58042,-0.39666 3.40344,0.21067 5.68497,1.89392 1.84718,1.36281 4.11933,2.47784 5.04922,2.47784 0.92989,0 2.45638,1.16855 3.39219,2.59679 1.53096,2.33653 2.11876,2.52873 5.86501,1.9177 2.28994,-0.37351 9.56353,-0.81003 16.16353,-0.97009 6.6,-0.16004 13.90863,-0.61991 16.24139,-1.02191 3.42156,-0.58965 4.36039,-0.42084 4.85699,0.87329 0.76597,1.99607 5.22385,2.09664 8.87902,0.20032 2.01126,-1.04346 3.51688,-1.15105 5.8643,-0.41905 1.73707,0.54166 3.89501,1.21263 4.79544,1.49101 0.90043,0.27839 1.93949,0.017 2.30902,-0.58095 0.89741,-1.45204 8.13158,-1.38736 10.86958,0.0972 1.20134,0.65138 4.52959,1.22569 7.3961,1.27626 8.61187,0.15195 14.59571,6.11025 11.72043,11.67042 -0.78775,1.52333 -1.43227,3.46705 -1.43227,4.31936 0,2.09334 2.66559,1.96963 3.86832,-0.17953 0.88934,-1.58915 1.11606,-1.59972 2.79969,-0.13048 1.0076,0.87928 2.50699,1.82161 3.33199,2.09405 2.04657,0.67586 5,-0.9737 5,-2.79262 0,-1.29757 0.28778,-1.30602 2.25,-0.0661 2.5119,1.58724 19.07654,4.1586 20.62493,3.20165 0.93357,-0.57698 2.97635,-1.04351 15.90661,-3.63272 2.90485,-0.58168 8.59044,-2.60717 12.63465,-4.50109 7.4218,-3.47566 12.58381,-4.41404 12.58381,-2.28756 0,0.63576 -2.25,3.22446 -5,5.75267 -2.75,2.52821 -5,5.1681 -5,5.86641 0,2.80978 8.31487,10.14227 15.56137,13.72283 8.46161,4.18097 9.07549,4.15813 19.43848,-0.72309 3.57508,-1.68394 7.55155,-3.544 8.8366,-4.13347 1.28504,-0.58947 3.70416,-2.79864 5.3758,-4.90927 2.69103,-3.39769 3.08894,-4.76399 3.47197,-11.92143 l 0.4326,-8.08393 -3.05841,0.61167 c -3.43562,0.68713 -3.38958,0.81119 -1.97599,-5.3239 0.72807,-3.15989 2.05081,-5.32413 4.47555,-7.32281 1.89312,-1.56046 3.45129,-3.59195 3.4626,-4.5144 0.0377,-3.07677 8.35404,-11.46152 12.53006,-12.6332 3.21103,-0.90093 3.98776,-1.63261 4.52581,-4.26335 0.35723,-1.74667 2.41912,-5.33687 4.58197,-7.97821 7.07922,-8.64534 7.76017,-10.12174 10.05214,-21.7945 0.32313,-1.64564 1.47831,-4.19694 2.56707,-5.66957 2.57721,-3.48587 1.77449,-6.66805 -3.02104,-11.97613 -7.66,-8.4787 -25.46246,-18.46165 -45.75658,-25.65857 -21.81176,-7.73513 -30.63742,-9.56475 -46.5,-9.63981 -12.63573,-0.0598 -13.86753,0.10839 -19.24092,2.62666 -3.15751,1.47979 -8.18917,4.31557 -11.18147,6.30175 -2.9923,1.98617 -7.04639,3.87181 -9.00908,4.19032 -3.4552,0.5607 -3.56853,0.4796 -3.56853,-2.55362 0,-1.723 1.35,-7.0289 3,-11.79089 4.54403,-13.11432 4.80583,-12.5653 -7.25,-15.20353 -5.6375,-1.23369 -15.875,-3.13634 -22.75,-4.22811 -6.875,-1.09177 -16.55,-2.63918 -21.5,-3.43867 -16.13121,-2.60542 -30.10165,-1.68866 -62.5,4.10136 -39.27102,7.01824 -65.46341,9.3536 -83.7327,7.46573 -13.82421,-1.42853 -16.69331,-2.16235 -19.78904,-5.06135 -1.71052,-1.60182 -3.09599,-1.81643 -9,-1.39415 -12.70377,0.90864 -16.91496,0.64996 -34.52394,-2.12072 l -17.45432,-2.74638 -6.499998,-4.8605 c -15.215984,-11.37808 -32.938356,-18.25292 -47,-18.23221 -13.401497,0.0197 -22.30242,5.16742 -27.577265,15.94882 -1.46159,2.98738 -3.113152,5.4316 -3.670138,5.4316 -1.355815,0 -0.333943,-8.82255 1.197279,-10.33696 0.900791,-0.89091 0.92724,-0.50436 0.113035,1.65206 -2.12172,5.61934 -0.988524,5.97249 2.187089,0.68159 5.823069,-9.70184 15.628322,-14.99669 27.771539,-14.99669 12.748043,0 32.801544,7.8005 46.478461,18.07939 l 6.999998,5.26086 17.5,2.83283 c 15.25241,2.46901 19.10806,2.75173 30.02053,2.20135 12.47118,-0.629 12.53284,-0.62114 15.64267,1.99561 2.73086,2.29787 4.79608,2.82756 16.47946,4.22668 11.3368,1.35762 15.55073,1.42165 27.85734,0.42331 17.34019,-1.40668 40.89103,-4.47766 54.0605,-7.04939 27.50023,-5.37023 52.55845,-7.30735 64.9395,-5.02011 2.475,0.45722 10.125,1.77824 17,2.93559 19.02772,3.20318 35.24632,6.31142 37.75,7.23466 2.91972,1.07667 2.82809,2.65004 -0.75,12.87922 -3.15386,9.01635 -3.85272,15.00415 -1.75,14.9939 0.6875,-0.003 5.3,-2.48991 10.25,-5.52569 11.44868,-7.02134 16.35906,-8.46821 28.7392,-8.46821 12.58441,0 25.83984,2.69268 45.2608,9.19416 26.65198,8.92221 44.54163,18.75046 55.54948,30.51788 11.05138,11.81396 12.30107,18.63522 6.00692,32.78796 -0.48921,1.1 -1.11847,3.125 -1.39837,4.5 -0.49848,2.44875 -0.46431,2.43996 1.66653,-0.4289 1.19649,-1.61091 3.41791,-4.3109 4.9365,-6 2.74903,-3.05773 2.75692,-3.05957 1.81227,-0.41981 -0.52183,1.45822 -2.61538,5.95822 -4.65234,10 -2.03696,4.04179 -4.93451,10.2737 -6.43899,13.84871 -13.17297,31.30192 -20.30564,44.246 -27.01295,49.02203 -1.6627,1.18394 -9.19842,5.28313 -16.74607,9.1093 -7.54764,3.82618 -16.64449,8.54796 -20.21523,10.49285 -5.71571,3.1132 -7.09123,3.46974 -11.5,2.98082 -14.19582,-1.57427 -21.89536,-1.74433 -29.61143,-0.65403 -4.61798,0.65253 -11.54632,1.61373 -15.39632,2.13601 -23.52008,3.19063 -64.00132,0.34851 -94,-6.59957 -16.00571,-3.70713 -41.03153,-9.94759 -50,-12.46804 -25.15636,-7.06982 -64.56418,-24.35028 -72.76119,-31.90602 l -4.48169,-4.13108 -10.11141,4.00811 c -5.56127,2.20446 -12.25662,4.54666 -14.87856,5.20489 -2.62193,0.65823 -5.19838,1.5623 -5.72545,2.00905 -14.5417,2.11306 5.72545,-2.00905 -14.5417,2.11306 z M 18.235114,785.4688 c -0.307887,-0.30789 -0.867048,0.24711 -1.242579,1.23333 -0.542685,1.42521 -0.427821,1.54007 0.559795,0.5598 0.683418,-0.67834 0.990671,-1.48523 0.682784,-1.79313 z M 230.4357,782.49104 c 3.24337,-1.83326 9.40603,-6.00265 13.69479,-9.26531 12.60328,-9.58789 26.6065,-18.77922 36.01762,-23.64099 6.54678,-3.38205 10.6741,-6.4429 16.22605,-12.03339 4.09525,-4.12367 7.18611,-7.75739 6.86858,-8.07492 -0.31753,-0.31754 -4.5682,2.18126 -9.44592,5.55288 -18.13269,12.53383 -28.47735,18.94198 -52.36858,32.44049 -26.73876,15.10737 -30,17.1413 -30,18.71005 0,2.27875 12.86796,-0.21855 19.00746,-3.68881 z m 296.90694,-13.49577 c -0.0362,-0.98906 -0.34772,-0.81875 -0.9144,0.5 -1.18132,2.74909 -1.18132,4.32797 0,2.5 0.53316,-0.82501 0.94464,-2.175 0.9144,-3 z m -133.9144,-13.5 c 0,-1.88869 1.92019,-1.87495 4.44113,0.0318 1.83739,1.38973 1.77058,1.46821 -1.25,1.46821 -2.16989,0 -3.19113,-0.48005 -3.19113,-1.5 z m -11.55385,-1.58713 c -1.09049,-1.76446 1.20415,-3.21746 3.98063,-2.5206 3.63082,0.91127 3.35594,3.60773 -0.36776,3.60773 -1.61754,0 -3.24333,-0.48921 -3.61287,-1.08713 z m 32.05385,-306.9706 c -9.92992,6.67633 -35.80355,20.4479 -43.5,23.15344 -5.44963,1.9157 -9.48952,2.39859 -25,2.98824 -15.61419,0.5936 -20.0599,1.12948 -28.5,3.43536 -14.22956,3.88757 -26.78877,4.01764 -34.5922,0.35825 -6.44918,-3.02431 -9.9078,-6.31909 -9.9078,-9.43849 0,-1.20107 1.12215,-5.62139 2.49367,-9.82292 2.75959,-8.45378 5.89049,-22.56534 5.16703,-23.28878 l -1.00683,-2.51918 c 6.40792,-2.1581 5.32151,-2.7807 -1.24292,19.9505 -2.89504,10.0249 -3.52843,16.41306 -1.87721,18.93313 4.10172,6.26004 19.11886,9.31356 32.46626,6.60154 4.125,-0.83814 8.70791,-2.14328 10.18425,-2.90031 l 2.68426,-1.37641 -2.58928,-4.75833 c -1.42409,-2.61708 -3.61786,-5.88332 -4.87502,-7.25832 -1.25717,-1.375 -2.83568,-4.75 -3.5078,-7.5 -0.67213,-2.75 -2.65638,-8.825 -4.40945,-13.5 -1.75307,-4.675 -3.46717,-9.29139 -3.80911,-10.25865 -0.34195,-0.96726 -1.75935,-2.27699 -3.14979,-2.91052 -1.39043,-0.63351 -2.52806,-1.71863 -2.52806,-2.41136 0,-0.69272 -2.5479,-3.53041 -5.66201,-6.30596 l -5.662,-5.04646 1.412,-11.28353 c 1.2904,-10.31168 1.59955,-11.31022 3.5894,-11.59356 1.91774,-0.27306 2.10616,-0.75004 1.58006,-4 -0.32852,-2.02948 -2.09547,-5.71496 -3.92654,-8.18996 -1.83107,-2.475 -4.0592,-6.075 -4.9514,-8 -0.8922,-1.925 -2.01385,-4.175 -2.49256,-5 -5.51083,-9.49734 -7.88702,-15.63068 -7.88777,-20.3597 -7.5e-4,-4.72759 -2.14068,-17.23951 -3.59804,-21.03732 -0.33831,-0.88163 -0.21563,-1.60297 0.27263,-1.60297 0.48827,0 1.39732,1.35 2.02013,3 0.6228,1.64999 1.84646,3 2.71924,3 1.22335,0 1.59189,-1.08811 1.60882,-4.75 0.0224,-4.83579 2.38698,-11.04681 5.66169,-14.87127 0.99899,-1.1667 4.06635,-3.39919 6.81635,-4.96109 2.75,-1.5619 7.84094,-4.76984 11.31321,-7.12874 3.47226,-2.3589 6.73476,-4.2889 7.25,-4.2889 1.25646,0 1.20224,4.71791 -0.0632,5.5 -0.55,0.33992 -0.99311,1.37898 -0.98469,2.30901 0.0132,1.45748 0.14939,1.48385 0.98623,0.19099 0.81288,-1.25586 1.34901,-1.0313 3.29388,1.37959 2.01114,2.49302 3.25473,2.9753 9.26378,3.59256 3.81744,0.39213 8.2275,1.24139 9.80013,1.88722 2.04015,0.83785 3.90236,0.88455 6.5,0.16301 2.00237,-0.55618 5.11813,-1.01375 6.92391,-1.01681 1.80579,-0.003 5.50333,-1.13058 8.21676,-2.50558 2.71343,-1.375 5.82275,-2.5 6.9096,-2.5 1.08684,0 3.51505,-0.90801 5.39601,-2.01781 3.03271,-1.78934 3.56257,-1.84595 4.67961,-0.5 1.71255,2.0635 2.75658,1.90669 3.53001,-0.53018 0.6336,-1.99628 -1.10756,-5.31919 -2.37854,-4.5393 -0.35018,0.21487 -0.68461,-0.91508 -0.74317,-2.51101 -0.1602,-4.36571 2.705,-3.81239 16.27603,3.14319 9.57821,4.90912 12.17337,5.85519 13.81232,5.03527 1.10997,-0.55529 3.36813,-1.13799 5.01813,-1.29489 2.52268,-0.23988 3.20746,-0.9217 4.30392,-4.28527 1.83681,-5.63473 2.69876,-6.13966 5.43702,-3.18503 1.78662,1.9278 3.0748,5.7802 5.14234,15.37858 1.51722,7.04355 3.23712,14.45891 3.82201,16.47859 1.20197,4.15052 -0.0789,14.9451 -3.33338,28.09271 -1.36477,5.51344 -2.07822,12.90714 -2.46059,25.5 -0.29619,9.75433 -0.72067,18.65679 -0.9433,19.78323 -0.22262,1.12645 -2.16674,3.03837 -4.32027,4.24872 -3.20619,1.80199 -5.50707,4.87288 -12.70129,16.95192 -4.83219,8.1132 -9.60944,15.68028 -10.61613,16.81573 -1.00668,1.13545 -1.83033,2.8453 -1.83033,3.79966 0,2.275 -2.43172,6.91937 -4.53824,8.66763 -0.91856,0.76233 -2.07141,2.44156 -2.56188,3.7316 -0.52094,1.37018 -2.6863,3.13934 -5.20725,4.25447 -2.37351,1.04992 -4.91945,3.0375 -5.65765,4.41684 -1.71938,3.21267 -13.18484,7.75554 -18.74564,7.42742 -3.55774,-0.20992 -9.15966,2.35607 -9.25792,4.24065 -0.0173,0.33149 4.61636,0.9032 10.29699,1.27046 13.32944,0.86177 18.76158,-0.72703 39.67159,-11.60325 z m -77.74083,-9.44908 c 2.21496,-0.44591 4.56475,-2.20447 7.33412,-5.48877 2.24122,-2.65796 6.84959,-6.75357 10.24083,-9.10137 3.39123,-2.34781 7.71146,-5.59565 9.6005,-7.21744 1.88905,-1.62179 5.03905,-3.68261 7,-4.5796 1.96096,-0.89699 4.86859,-2.86279 6.4614,-4.36845 1.59282,-1.50566 3.49376,-2.73756 4.22432,-2.73756 0.73057,0 2.02641,-1.35 2.87966,-3 0.85325,-1.65 1.92803,-3 2.3884,-3 1.35978,0 7.54107,-13.23703 7.705,-16.5 0.3335,-6.63826 -0.63648,-9.36826 -3.44405,-9.69329 -2.12347,-0.24583 -2.66943,-0.85611 -2.75051,-3.07454 -0.12712,-3.47826 -1.16607,-4.61701 -1.93904,-2.1253 -1.309,4.21968 -3.70985,8.11405 -7.03582,11.41269 -1.9301,1.91424 -4.47123,4.49294 -5.64696,5.73044 -1.17573,1.2375 -2.75621,2.25 -3.51217,2.25 -0.75596,0 -4.61231,1.39017 -8.56966,3.08926 -5.92266,2.5429 -8.70034,3.12529 -15.70568,3.29296 -4.68077,0.11203 -9.02874,0.52399 -9.66216,0.91546 -3.25097,2.00921 -25.32735,-5.53881 -25.32735,-8.65954 0,-1.5774 -3.76699,-5.20448 -4.57061,-4.40086 -1.20139,1.20139 0.97647,8.14375 3.94589,12.57828 1.71859,2.56655 5.37472,6.10026 8.12472,7.85266 9.62475,6.13329 8.78497,4.1525 9.00527,21.24089 0.20348,15.78365 0.7098,17.65838 4.49473,16.64272 0.825,-0.22139 2.96663,-0.69777 4.75917,-1.05864 z m 10.91583,-51.3312 c 0.91124,-0.50995 3.34172,-0.70119 5.40107,-0.42496 2.514,0.3372 4.50405,-0.0299 6.05661,-1.11741 1.27178,-0.89079 3.12804,-1.61962 4.12501,-1.61962 2.11413,0 6.74231,-2.82471 6.74231,-4.11501 0,-1.38959 3.85054,-4.88499 5.38131,-4.88499 2.6102,0 6.69383,-6.85987 8.10842,-13.62091 0.77931,-3.72467 2.28585,-7.57576 3.44727,-8.81204 1.13465,-1.20778 2.063,-2.54598 2.063,-2.97378 0,-0.42779 0.9,-1.92198 2,-3.3204 1.1,-1.39842 2,-3.39686 2,-4.44097 0,-1.04411 1.125,-4.11847 2.5,-6.8319 2.40821,-4.75237 3.36725,-11 1.68856,-11 -0.44629,0 -1.85555,0.97273 -3.13169,2.16163 -1.71352,1.5964 -3.72038,2.20344 -7.67467,2.32148 -4.3167,0.12886 -6.0839,0.7444 -9.11831,3.17604 -5.2413,4.20015 -7.64509,5.34085 -11.25475,5.34085 -1.7173,0 -7.03438,1.63637 -11.81575,3.63641 -7.55749,3.16126 -9.67336,3.62069 -16.19339,3.51614 -4.125,-0.0661 -10.36329,-0.67018 -13.86286,-1.3423 -5.85649,-1.12478 -6.47113,-1.07397 -7.72325,0.63839 -1.3068,1.78717 -1.51693,1.75196 -5.33513,-0.89407 -7.39425,-5.12421 -15.2189,-6.91348 -16.92233,-3.86962 -0.88417,1.57994 -1.10322,1.57994 -3.5145,0 -6.28512,-4.11818 -7.61985,-0.22616 -2.01294,5.86962 1.99595,2.16999 4.30921,4.97549 5.14059,6.23447 0.90469,1.36998 2.31034,2.17299 3.50098,2 2.0958,-0.30451 2.78331,0.61243 4.54948,6.06761 1.07515,3.32083 1.05633,3.35219 -1.76296,2.93841 -3.80623,-0.55864 -3.03764,1.2534 2.01757,4.75666 2.15894,1.49615 3.92535,3.3129 3.92535,4.03722 0,2.68702 2.3776,6.41105 4.09313,6.41105 0.97465,0 2.028,0.80628 2.34077,1.79174 0.56587,1.78288 9.99626,7.17613 12.66601,7.2437 0.77005,0.0195 2.5051,0.64733 3.85567,1.3952 2.72992,1.51169 15.87525,1.32304 18.71942,-0.26864 z m -10.64333,-20.62383 c -0.70211,-0.846 -2.42938,-1.53816 -3.83839,-1.53816 -4.06413,0 -11.19328,-3.87831 -11.19328,-6.08921 0,-1.05093 0.64844,-1.91079 1.44098,-1.91079 2.17901,0 2.77318,-1.68422 1.38075,-3.91384 -0.68531,-1.09736 -1.03805,-2.18698 -0.78388,-2.42138 0.25418,-0.2344 4.06215,0.25853 8.46215,1.09543 4.63102,0.88082 13.15875,1.49324 20.25,1.45424 7.72106,-0.0425 12.25,0.31053 12.25,0.9548 0,0.56219 -0.76358,2.31481 -1.69685,3.8947 -1.3142,2.22477 -2.68321,3.02046 -6.07084,3.52846 -2.40569,0.36076 -5.57961,1.66207 -7.05315,2.89179 -3.54326,2.957 -11.38174,4.18156 -13.14749,2.05396 z m 5.96833,-4.53816 c 0,-0.55001 -0.92656,-1 -2.05902,-1 -1.13246,0 -1.7809,0.44999 -1.44098,1 0.33992,0.55 1.26648,1 2.05902,1 0.79254,0 1.44098,-0.45 1.44098,-1 z m -39,16.5 c 0,-0.275 -0.225,-0.5 -0.5,-0.5 -0.275,0 -0.5,0.225 -0.5,0.5 0,0.27499 0.225,0.5 0.5,0.5 0.275,0 0.5,-0.22501 0.5,-0.5 z m -5,-19.87757 c 0,-1.60412 -2.78168,-4.17408 -3.61547,-3.3403 -0.31193,0.31193 -0.27073,1.50105 0.0916,2.6425 0.73243,2.30768 3.52392,2.86045 3.52392,0.6978 z m 33.5,-17.62243 c -2.77889,-1.19413 -5.5,-1.19413 -5.5,0 0,0.55 1.6875,0.96836 3.75,0.92971 3.0082,-0.0564 3.35437,-0.2403 1.75,-0.92971 z m 13,0 c 1.77225,-0.76156 1.68684,-0.86744 -0.75,-0.92971 -1.5125,-0.0387 -2.75,0.3797 -2.75,0.92971 0,1.17371 0.76862,1.17371 3.5,0 z m -29.07003,-1.88669 c 0.30141,-0.48768 -0.12204,-1.44279 -0.94098,-2.12245 -0.81894,-0.67967 -1.48899,-2.75565 -1.48899,-4.6133 v -3.37756 l -6.25,-0.0153 c -7.66268,-0.0188 -10.19051,-1.20038 -7.24513,-3.38664 1.61448,-1.19837 1.77935,-1.82597 0.86413,-3.28948 -1.15876,-1.85295 -3.51925,-2.15136 -6.619,-0.83676 -1.46691,0.62211 -1.75,0.19806 -1.75,-2.62142 0,-1.84998 0.4423,-4.90582 0.9829,-6.79076 0.54059,-1.88494 0.77374,-3.63632 0.51811,-3.89195 -0.25563,-0.25563 -2.30425,0.80996 -4.55248,2.36799 -6.80897,4.71862 -8.49716,10.14897 -5.26332,16.9304 1.4857,3.11555 2.1283,3.53393 5.42779,3.53393 2.44233,0 6.80756,1.54705 12.56478,4.45301 8.64506,4.36359 12.6575,5.43154 13.75219,3.6603 z m 11.01426,-2.02308 c 0.68886,-1.1146 -0.36181,-4.09023 -1.44423,-4.09023 -1.08242,0 -2.13309,2.97563 -1.44423,4.09023 0.30925,0.50038 0.95915,0.90977 1.44423,0.90977 0.48508,0 1.13498,-0.40939 1.44423,-0.90977 z m 13.25815,-0.40629 c 0.55708,-0.3443 2.51182,-0.1961 4.34387,0.32932 2.63935,0.75695 3.70572,0.61619 5.13575,-0.67798 0.99261,-0.8983 3.04524,-1.67872 4.56138,-1.73428 2.05628,-0.0753 2.75662,-0.60912 2.75662,-2.101 0,-1.43341 -0.56659,-1.91495 -2,-1.69977 -2.98178,0.44761 -3.79815,0.40715 -6.08572,-0.30147 -1.43738,-0.44527 -3.02056,0.14051 -5.09312,1.88445 -1.65406,1.39181 -3.41549,2.15947 -3.91428,1.70591 -0.49878,-0.45355 -2.3223,-1.08849 -4.05226,-1.41096 -2.62734,-0.48975 -3.23701,-0.23589 -3.70176,1.54131 -0.30601,1.17019 -0.32209,2.5067 -0.0357,2.97003 0.55675,0.90084 6.40093,0.53541 8.08526,-0.50556 z m -20.70238,-1.12493 c 0,-0.24254 -0.51953,-0.76207 -1.15451,-1.15451 -0.7153,-0.44208 -0.88306,-0.27432 -0.44098,0.44098 0.71244,1.15276 1.59549,1.54767 1.59549,0.71353 z m 56.11045,-5.84155 c 3.807,-2.56364 11.59422,-5.71746 14.11722,-5.71746 0.91344,0 2.91317,-1.07725 4.44384,-2.39387 3.96757,-3.41276 3.91542,-9.34029 -0.11922,-13.55156 -2.50977,-2.61964 -13.75206,-10.05457 -15.20342,-10.05457 -1.16356,0 1.01662,6.78246 3.33075,10.36182 1.42159,2.19882 2.12097,4.23759 1.6241,4.73446 -1.26975,1.26975 -12.93062,2.69202 -14.56631,1.77664 -0.76509,-0.42816 -2.1675,-2.50028 -3.11646,-4.6047 -2.1476,-4.76253 -6.10477,-6.79517 -10.19868,-5.23867 -1.56289,0.59421 -5.39363,2.63065 -8.51276,4.52542 -6.67842,4.05692 -10.93123,4.38597 -18.67024,1.44453 -9.97598,-3.79167 -15.57483,-2.21288 -18.12826,5.11191 -1.00498,2.88287 -0.068,4.59805 1.86074,3.40605 0.53447,-0.33032 2.11213,0.14662 3.50592,1.05987 3.10513,2.03455 19.08836,2.39407 24.63928,0.55423 1.98932,-0.65936 7.16276,-1.59649 11.49654,-2.0825 5.0596,-0.56741 8.21147,-1.40978 8.8069,-2.35374 0.73537,-1.1658 1.56401,-1.25637 4.00345,-0.43761 1.69189,0.56786 3.58162,1.42495 4.19941,1.90464 0.61779,0.47967 1.78319,0.61891 2.58979,0.30939 1.70662,-0.6549 4.38902,2.03813 2.92893,2.94052 -0.52534,0.32467 -5.60969,1.04419 -11.29856,1.59893 -5.68888,0.55473 -11.46841,1.30772 -12.84341,1.67329 -1.375,0.36557 -7.76498,0.6986 -14.19995,0.74009 -7.11294,0.0459 -12.13352,0.50897 -12.80584,1.18127 -0.80783,0.80779 0.72844,1.14859 5.69995,1.26445 3.74321,0.0872 8.38084,0.20038 10.30584,0.2514 1.925,0.051 5.975,-0.19122 9,-0.5383 6.2439,-0.71644 6.85771,-0.73347 12.86576,-0.35697 3.14008,0.19677 4.82457,0.89479 6,2.48627 2.09524,2.83686 4.0374,2.83799 8.24469,0.005 z m -68.11045,-20.78404 c 0,-1.52526 -2.99887,-2.33456 -4.2,-1.13342 -0.58606,0.58605 -0.78749,1.79021 -0.44762,2.67591 0.49056,1.27836 1.03331,1.38803 2.63278,0.53203 1.10816,-0.59307 2.01484,-1.5266 2.01484,-2.07452 z m 67,-5.49245 c 0,-0.79254 -0.9,-1.44097 -2,-1.44097 -2.24979,0 -2.56481,1.03519 -0.83992,2.76008 1.3785,1.37849 2.83992,0.69968 2.83992,-1.31911 z m -120.5,13.55903 c -0.33992,-0.55001 -0.16803,-1 0.38197,-1 0.55,0 1.27811,0.44999 1.61803,1 0.33992,0.55 0.16803,1 -0.38197,1 -0.55,0 -1.27811,-0.45 -1.61803,-1 z m -4.5,-9.06575 c 0,-1.97482 2.09228,-4.99525 3.05017,-4.40325 0.52241,0.32286 0.94983,1.68547 0.94983,3.02801 0,1.77431 -0.54623,2.44099 -2,2.44099 -1.1,0 -2,-0.47958 -2,-1.06575 z m 176.0643,-0.87335 c -2.326,-1.47184 0.40847,-3.80055 4.974,-4.23595 4.5114,-0.43023 4.88737,0.23473 1.77314,3.13608 -2.35842,2.19721 -4.46919,2.54129 -6.74714,1.09987 z m -177.8503,-10.24268 c -1.7677,-2.29999 -3.214,-4.66249 -3.214,-5.25 0,-0.58752 -1.81626,-4.70074 -4.03614,-9.14049 -3.48804,-6.9761 -4.12091,-9.27356 -4.66042,-16.91856 -0.56483,-8.00365 -0.46501,-8.78516 1.04792,-8.20459 1.51679,0.58206 1.53985,0.38571 0.24806,-2.11234 -1.05947,-2.04879 -1.14968,-3.24451 -0.35226,-4.66942 0.76753,-1.37149 0.74704,-3.49245 -0.0721,-7.46911 -0.62922,-3.05455 -1.59642,-9.92921 -2.14932,-15.27702 -0.55291,-5.34782 -1.43521,-11.64782 -1.96067,-14 -1.76875,-7.91761 -1.54748,-21.85582 0.41714,-26.2767 1.73402,-3.90198 2.67379,-7.80789 4.33085,-18 0.99544,-6.12263 2.25378,-8.53699 6.16442,-11.82758 2.15145,-1.81033 3.02254,-3.42567 3.02254,-5.60498 0,-3.73521 5.33339,-10.00643 11.66636,-13.7178 3.95752,-2.31926 4.33364,-2.88431 4.33364,-6.5104 0,-5.57619 1.41336,-7.6431 5.76215,-8.4266 2.05582,-0.37038 4.29451,-1.115 4.97486,-1.6547 0.68036,-0.5397 2.31359,-0.71107 3.6294,-0.38082 1.53206,0.38452 3.24489,-0.0485 4.76299,-1.20423 7.00005,-5.32895 15.0871,-7.65703 16.23223,-4.67289 0.71255,1.8569 3.63837,1.99148 3.63837,0.16736 0,-0.73294 1.81422,-2.79058 4.0316,-4.57251 3.27108,-2.62871 4.59155,-3.11689 7,-2.58791 2.31347,0.50813 2.9684,0.30349 2.9684,-0.92748 0,-1.96979 1.05795,-2.00286 3.55887,-0.11126 2.37364,1.79533 6.46361,1.93432 9.96569,0.33866 1.75388,-0.79912 2.8427,-0.85576 3.29705,-0.17151 0.37312,0.5619 2.70339,1.09056 5.17839,1.17479 11.51432,0.39187 18.36784,0.12948 19.41971,-0.7435 1.44961,-1.20307 12.22498,0.17806 13.81803,1.77111 0.63924,0.63923 1.9834,1.16225 2.98701,1.16225 1.02627,0 2.24068,1.09396 2.77525,2.5 1.01505,2.66979 5.24267,3.53441 6.59363,1.34851 0.9286,-1.50252 3.40637,1.7742 3.40637,4.50476 0,3.18466 4.83311,10.50907 8.02304,12.15864 1.61989,0.83768 4.51239,3.09019 6.42778,5.00557 2.41234,2.41234 4.39465,3.48252 6.45075,3.48252 4.37636,0 7.48522,1.46027 11.03166,5.18171 4.07665,4.27783 12.42323,20.74894 14.38455,28.38643 2.47572,9.64061 3.63358,24.35927 2.56365,32.58893 -0.52506,4.03861 -0.68791,9.81793 -0.3619,12.84293 0.87725,8.13993 0.91998,20.18102 0.0807,22.75 -0.54352,1.66375 -0.34202,2.25 0.77334,2.25 0.8296,0 1.78648,-0.45 2.1264,-1 0.33992,-0.55 1.4829,-1 2.53996,-1 2.66672,0 3.35111,3.54868 2.676,13.87545 -0.71051,10.86838 -1.96678,14.49711 -4.71674,13.6243 -1.30444,-0.41401 -2.00685,-0.1767 -2.02118,0.68286 -0.0121,0.72457 -0.9502,3.34239 -2.0847,5.81739 l -2.06274,4.5 -1.6653,-3.08293 c -0.91592,-1.69561 -2.67612,-4.62061 -3.91156,-6.5 -1.23545,-1.87939 -2.24795,-4.68489 -2.25,-6.23446 -0.003,-2.34075 -0.33473,-2.71233 -1.96023,-2.19642 -1.6698,0.52998 -2.17635,-0.15617 -3.45693,-4.68261 -0.82525,-2.91697 -1.99504,-9.12858 -2.59954,-13.80358 -1.5061,-11.64771 -2.76869,-16.06794 -5.42714,-19 -3.05625,-3.3708 -3.73386,-5.44565 -4.08227,-12.5 -0.44036,-8.91609 -1.04472,-12.18799 -3.879,-21 -1.41692,-4.40535 -2.57883,-10.38045 -2.58586,-13.29775 -0.0108,-4.48901 -0.43258,-5.68494 -2.76277,-7.83408 -1.5125,-1.39498 -3.425,-4.57871 -4.25,-7.07496 -2.09062,-6.3257 -7.62989,-10.21945 -14.5,-10.19256 -2.75,0.0108 -7.7,-0.007 -11,-0.0402 -16.85468,-0.16778 -19.85722,0.0811 -23.51959,1.94951 -2.05356,1.04764 -4.00792,2.61929 -4.34302,3.49256 -0.76123,1.98373 -6.62028,4.49744 -10.48283,4.49744 -1.60032,0 -3.44415,0.64401 -4.09741,1.43114 -1.41752,1.70801 -10.73059,3.87825 -12.39072,2.88743 -0.64154,-0.38288 -1.79612,-1.57069 -2.56574,-2.63957 -1.27694,-1.77348 -2.19509,-1.88396 -10.5,-1.26351 -7.11976,0.53192 -9.86253,1.18881 -12.60069,3.01785 -5.12831,3.42562 -11.43068,4.13598 -13.98981,1.57685 -1.1056,-1.10557 -2.83174,-2.01015 -3.83587,-2.01015 -2.00971,0 -6.17431,3.93102 -6.17431,5.82802 0,0.65951 -0.44661,1.98051 -0.99247,2.93555 -3.99075,6.9822 -5.03879,12.47061 -4.88163,25.5643 0.28704,23.91448 -0.0916,29.80627 -2.35702,36.67214 -1.84928,5.60475 -2.16025,8.97916 -2.25781,24.5 -0.0863,13.7307 -0.51614,19.37551 -1.81225,23.79937 -1.52585,5.20796 -1.54614,6.09519 -0.19897,8.70033 1.60696,3.10753 2.00409,7.0003 0.71415,7.0003 -0.4323,0 -2.2323,-1.8818 -4,-4.18178 z m -2.49671,-21.56822 c 0.81613,-1.86175 0.92322,-3.98684 0.33156,-6.57923 -1.28419,-5.62662 -2.04703,-5.65896 -2.0625,-0.0874 -0.008,2.70417 -0.285,5.92917 -0.61664,7.16667 -0.85114,3.17602 0.89959,2.80314 2.34758,-0.5 z m 5.81588,-20.04425 c 0.0711,-8.75544 0.59023,-14.93172 1.43721,-17.10002 0.99445,-2.54586 1.16437,-6.76119 0.67982,-16.86467 -1.23894,-25.83315 1.75206,-43.59962 9.35951,-55.59533 2.91843,-4.60187 3.95335,-5.34724 5.40922,-3.89573 0.41374,0.41249 2.17624,0.81372 3.91666,0.89162 1.74043,0.0779 5.06419,0.63981 7.38614,1.24869 3.64474,0.95576 4.74687,0.83333 8.06411,-0.89571 7.62614,-3.97497 32.14086,-4.80129 34.816,-1.17356 0.93575,1.26897 1.52594,1.01823 3.9153,-1.66343 1.5474,-1.73669 3.41797,-3.15762 4.15682,-3.15762 0.73885,0 3.20698,-1.35 5.48474,-3 2.44062,-1.76798 5.41445,-3.01004 7.24134,-3.02445 5.4964,-0.0433 11.36156,-1.88232 16.01086,-5.0201 4.09279,-2.76219 5.13044,-3.02121 10.55908,-2.63582 3.31115,0.23506 6.58496,0.86901 7.27514,1.40878 0.69018,0.53977 2.77918,1.49483 4.64222,2.12235 4.05703,1.36652 13.18615,8.94928 14.77914,12.27573 7.26821,15.17737 9.19329,20.10959 9.78472,25.06944 0.37356,3.13274 1.99721,10.55775 3.60811,16.5 1.61091,5.94224 2.93157,11.79335 2.9348,13.00246 0.003,1.20911 1.15666,5.84121 2.56316,10.29356 1.40649,4.45235 3.14015,13.4112 3.85256,19.90855 0.71241,6.49736 1.64909,12.38583 2.0815,13.08549 0.52753,0.85355 1.59955,-0.43916 3.2581,-3.92879 1.39416,-2.93334 3.50233,-5.67041 4.83531,-6.27776 4.40251,-2.00591 5.80092,-8.20505 5.09168,-22.57142 -0.34504,-6.98941 -0.21099,-15.60249 0.29791,-19.14019 1.61242,-11.20905 -1.56912,-31.47152 -6.44832,-41.06782 -1.8177,-3.575 -4.31437,-8.67794 -5.54816,-11.33986 -2.756,-5.9461 -8.46334,-10.31048 -14.70763,-11.24687 -3.02958,-0.45431 -5.77631,-1.74727 -8.16746,-3.84464 -1.98152,-1.73807 -4.78936,-3.90406 -6.23964,-4.81332 -1.45028,-0.90925 -3.6114,-3.22998 -4.80247,-5.15718 -1.19108,-1.9272 -3.49198,-4.20018 -5.11312,-5.05106 -1.62114,-0.85089 -4.29753,-2.25503 -5.94753,-3.12031 -1.65,-0.86528 -3,-2.15392 -3,-2.86364 0,-0.70972 -1.23036,-2.52075 -2.73414,-4.02453 -2.4821,-2.4821 -3.19649,-2.67602 -7.75,-2.1036 -3.62714,0.45595 -5.57999,1.31362 -7.05342,3.09777 -2.43138,2.9441 -5.53002,3.18994 -7.16705,0.56862 -0.79338,-1.2704 -2.9107,-2.13587 -6.39903,-2.61563 -4.74167,-0.65215 -5.3759,-0.503 -7.01055,1.64862 -1.60387,2.11112 -2.03134,2.22139 -3.9732,1.02492 -1.89789,-1.16937 -2.53084,-1.07833 -4.953,0.71245 -2.82242,2.0867 -4.05886,1.67453 -5.10164,-1.70066 -0.61689,-1.99668 -10.95139,-2.44782 -15.21972,-0.6644 -2.63143,1.09948 -3.58158,2.1511 -3.82039,4.22838 -0.32155,2.79704 -2.17983,3.37611 -7.00228,2.18202 -0.92644,-0.22939 -1.69096,0.0328 -1.69894,0.58261 -0.0139,0.95573 -5.24289,2.64976 -7.86664,2.54854 -10.16286,-0.3921 -17.25,3.10858 -17.25,8.5206 0,2.28218 -0.3485,2.5977 -2.42977,2.19985 -1.90952,-0.36503 -2.55549,0.0365 -3.01698,1.87518 -0.37777,1.50516 -2.30747,3.21138 -5.41025,4.78368 -6.62031,3.35476 -11.50119,9.00918 -10.6622,12.35199 0.52418,2.08851 -0.17391,3.35546 -3.97557,7.21516 -3.97077,4.03139 -4.74358,5.50309 -5.5628,10.59356 -1.76245,10.9515 -2.67533,14.89502 -4.31254,18.62963 -1.85005,4.22007 -2.15602,17.43417 -0.57383,24.78212 0.53292,2.47499 1.40285,9 1.93317,14.5 1.34435,13.94246 3.89223,24.25001 7.21825,29.20178 1.55225,2.311 3.72688,6.31219 4.83253,8.89154 1.10564,2.57936 2.31885,4.38115 2.69603,4.00396 0.37718,-0.37718 0.73589,-6.85337 0.79713,-14.39153 z m 178.46683,11.29425 c 0,-0.825 -0.45,-1.5 -1,-1.5 -0.55,0 -1,0.675 -1,1.5 0,0.82499 0.45,1.5 1,1.5 0.55,0 1,-0.67501 1,-1.5 z m 11.43238,-14.60513 c 0.3799,-3.35781 0.41644,-6.3794 0.0812,-6.71463 -1.10956,-1.10955 -4.0179,1.54778 -3.7767,3.45075 1.39389,10.99755 2.69092,12.1431 3.69549,3.26388 z M 268.42824,124.38828 c 0,-0.21615 -0.675,-0.39301 -1.5,-0.39301 -0.825,0 -1.5,0.43588 -1.5,0.96862 0,0.53273 0.675,0.70959 1.5,0.39301 0.825,-0.31659 1.5,-0.75246 1.5,-0.96862 z m 158,165.60699 c 0,-1.10001 0.45,-2 1,-2 0.55,0 1,0.89999 1,2 0,1.1 -0.45,2 -1,2 -0.55,0 -1,-0.9 -1,-2 z M 278.43121,272.04115 c -3.57336,-2.21542 -6.64836,-4.48205 -6.83333,-5.03697 -0.18497,-0.55491 -1.61131,-1.00891 -3.16964,-1.00891 -3.53752,0 -3.99683,-1.30982 -2.26048,-6.44626 3.38897,-10.02518 4.69727,-11.21056 16.62502,-15.06286 6.66085,-2.15125 6.7992,-2.26279 4.66284,-3.75916 -1.59647,-1.11821 -3.01216,-1.30969 -5.15002,-0.69656 -6.62103,1.89889 -16.30498,9.55437 -17.03261,13.46483 -0.75623,4.06422 -2.35394,1.82437 -2.64333,-3.70571 -0.35472,-6.77839 1.09765,-10.06154 7.45979,-16.86318 4.01062,-4.28768 5.19111,-4.91997 12.02357,-6.44005 4.84161,-1.07715 10.50708,-1.55855 15.69577,-1.33368 6.92137,0.29997 9.25887,0.90341 15.84136,4.08957 4.24705,2.05572 8.35275,4.75363 9.12377,5.99536 2.06501,3.32567 1.52224,19.78413 -0.76769,23.27902 -1.38047,2.10686 -1.98917,2.38232 -3.14489,1.42316 -1.08936,-0.90409 -1.76856,-0.91098 -2.83164,-0.0287 -0.94357,0.7831 -3.52921,0.94241 -7.94788,0.48969 -6.1543,-0.63052 -6.74535,-0.50606 -9.79917,2.06356 -3.16023,2.65917 -3.48568,2.71582 -11.80213,2.05471 -4.70375,-0.37392 -9.56478,-0.91852 -10.80228,-1.21022 -3.40312,-0.80215 -2.69424,1.25982 0.9524,2.77031 4.08163,1.69065 15.27533,1.48759 24.2976,-0.44079 11.7568,-2.51285 15.5,-2.83717 15.5,-1.34294 0,1.6778 -5.01966,5.40753 -11.45766,8.51332 -3.45701,1.66772 -7.29809,2.53732 -12.5151,2.83336 -7.36384,0.41786 -7.66828,0.33969 -14.02427,-3.60091 z m 8.49703,-12.69117 c 6.05,-0.40431 14.375,-0.76972 18.5,-0.81203 10.23494,-0.10498 14.05051,-2.64944 12.01224,-8.01049 -1.22528,-3.22273 -7.93103,-6.71678 -10.32237,-5.37852 -0.95766,0.53594 -5.66715,1.11456 -10.46553,1.28585 -10.80113,0.38555 -13.53951,1.07655 -19.22434,4.85104 -5.29241,3.51392 -7,5.43511 -7,7.87557 0,1.38364 0.61699,1.68737 2.75,1.35377 1.5125,-0.23655 7.7,-0.76089 13.75,-1.16519 z m 27.38612,-20.95979 c 2.08352,-0.6563 -0.96114,-3.63109 -6.83593,-6.67903 -3.38372,-1.75554 -5.16694,-2.19914 -5.89869,-1.46739 -0.73174,0.73174 -1.86761,0.51231 -3.75732,-0.72588 -5.43894,-3.56373 -20.36934,0.48613 -26.56432,7.20556 l -2.32986,2.52711 3,-0.55505 c 1.65,-0.30527 5.0528,-1.05609 7.56179,-1.66849 3.80967,-0.92986 5.70571,-0.7977 11.5,0.80157 6.43533,1.7762 18.54294,2.06773 23.32433,0.5616 z m 52.1458,29.06328 c -6.7273,-1.88091 -11.53192,-4.59498 -11.53192,-6.51426 0,-1.19408 2.76873,-1.46202 16,-1.54845 16.28699,-0.10638 21.5,-1.0449 21.5,-3.87075 0,-1.96352 -3.47782,-1.97309 -9,-0.0248 -5.48968,1.93688 -12.87721,1.98357 -13.60538,0.086 -0.43474,-1.13293 -2.70409,-1.33665 -11.41557,-1.02484 -10.73434,0.38423 -10.89912,0.35592 -12.926,-2.22084 -1.12918,-1.43548 -2.05305,-3.88843 -2.05305,-5.45097 0,-1.56253 -0.89832,-4.31435 -1.99626,-6.11514 -1.09795,-1.80079 -1.99795,-4.25205 -2,-5.44725 -0.004,-2.25075 5.29994,-8.32692 7.26846,-8.32692 0.6151,0 2.27012,-1.10345 3.67781,-2.45211 3.08956,-2.95998 16.13621,-5.54789 27.96909,-5.54789 8.00469,0 8.68425,0.23861 20.98135,7.36713 4.16962,2.4171 5.19347,3.62383 6.52276,7.6879 1.8681,5.7114 2.03723,11.08453 0.40042,12.72134 -0.90183,0.90183 -0.75683,1.63996 0.62128,3.16276 2.71568,3.00079 1.32961,5.06087 -3.40505,5.06087 -2.97095,0 -4.35199,0.53334 -5.28139,2.03963 -0.69216,1.1218 -4.214,4.04512 -7.82632,6.49629 -7.84005,5.31994 -14.81012,6.46379 -23.90023,3.92229 z m 13.46808,-2.40345 c 1.52255,-0.61257 0.68702,-0.97369 -3.5,-1.5127 -3.025,-0.38942 -7.075,-0.53507 -9,-0.32364 -3.47518,0.38166 -3.48227,0.39243 -1,1.51961 2.88918,1.31193 10.57807,1.49232 13.5,0.31673 z m -16.8151,-13.14252 c 3.02972,-1.17069 29.06115,-1.42571 34.84143,-0.34132 4.05253,0.76026 4.10785,0.61825 1.48844,-3.82132 -2.82263,-4.784 -8.61487,-7.69116 -17.23049,-8.6481 -7.07263,-0.78556 -17.37168,-0.0836 -21.1357,1.44061 -1.4629,0.59238 -1.7772,0.35185 -1.49773,-1.1462 0.46402,-2.48721 15.44022,-10.0257 23.03441,-11.59471 5.0013,-1.0333 5.56999,-1.39 4.72708,-2.96499 -1.688,-3.15406 -4.1199,-3.64366 -14.49367,-2.9179 -8.01985,0.56107 -10.70972,1.15275 -13.15437,2.89349 -1.69017,1.20351 -3.90357,2.19167 -4.91867,2.1959 -3.20605,0.0134 -6.70149,7.56208 -6.46958,13.97164 0.27632,7.63716 0.8507,8.99554 4.4694,10.56992 3.87215,1.68466 6.66521,1.78272 10.33945,0.36298 z m 16.3151,-10.91224 c 0,-0.55 0.42344,-1 0.94098,-1 0.51754,0 1.2191,0.45 1.55902,1 0.33992,0.55 -0.0835,1 -0.94098,1 -0.85746,0 -1.55902,-0.45 -1.55902,-1 z m 12.11709,-6.25 c -0.49725,-1.36698 -2.36433,-2.79814 -4.75747,-3.64671 -3.51545,-1.24652 -4.338,-1.20739 -7.64932,0.36394 -5.3727,2.54951 -4.79383,4.35245 1.5397,4.79553 12.44236,0.87044 11.76814,0.96429 10.86709,-1.51276 z m 8.3402,-2.8191 c -0.31643,-0.51199 -1.27887,-0.9309 -2.13875,-0.9309 -1.27119,0 -1.33244,0.27832 -0.32768,1.48899 1.29115,1.55573 3.46837,1.06308 2.46643,-0.55809 z"
         id="path1327"
         sodipodi:nodetypes="cssscssssssssssssssssssssssssssssssssssssssssssssssssssssssssssssssssssssssssssssscssssssssssssssssssssssssscssssssssscsssssssssscsssssssssssssssssssscssccsssssssssssssssssssssssssscssssssccsssscsssssssscssssssssssssssssssssssssssssssssssssssssssssssssssssccssssssssssssssssssssssssssssssssssssssssssssssssssssssssssssssssssssssssssssssssssssssssssssssssssssscsssssssssssssssssssssssssssssssssssscssssssssssssssssssssssssssssssccsssssssssssssssssssssssssssssssssssssssssscsssssssssssssssssssssssssssssscssssssssssssscssssssssssssssssssssscssssssssssssssssssssssscsssssssssssssssssssssssssssssssssssssssssssssssssssssssssssssssssssssssssssssssssssssssssssssssssssssssssscsssssssssssssscsssssssssssssssssssssssssssssssssssssssssssss" />
      <path
         style="fill:#312e2c"
         d="m 149.02891,868.68695 c 0.20407,-2.0625 0.59029,-10.95001 0.85827,-19.75 0.50899,-16.71397 2.31509,-35.98618 3.60061,-38.42053 0.41258,-0.78129 3.00553,-1.99772 5.76212,-2.70319 2.7566,-0.70546 9.61612,-3.10771 15.24338,-5.33833 l 10.23139,-4.05567 4.48169,4.13108 c 8.19701,7.55574 47.60483,24.8362 72.76114,31.90602 8.9685,2.52045 33.9943,8.76091 50,12.46804 29.9987,6.94808 70.48,9.7902 94,6.59957 3.85,-0.52229 10.7784,-1.48348 15.3964,-2.13602 7.716,-1.09029 15.4156,-0.92024 29.6114,0.65403 4.4088,0.48893 5.7843,0.13239 11.5,-2.98081 3.5707,-1.94489 12.6676,-6.66667 20.2152,-10.49285 7.5477,-3.82618 15.0834,-7.92536 16.7461,-9.1093 6.7073,-4.77603 13.84,-17.72012 27.0129,-49.02204 1.5045,-3.575 4.4021,-9.80692 6.439,-13.8487 2.037,-4.04179 4.1305,-8.54179 4.6524,-10 0.9446,-2.63976 0.9367,-2.63793 -1.8123,0.4198 -1.5186,1.6891 -3.74,4.3891 -4.9365,6 -2.1308,2.86886 -2.165,2.87765 -1.6665,0.4289 0.2799,-1.375 0.9091,-3.4 1.3983,-4.5 6.2942,-14.15273 5.0445,-20.97399 -6.0069,-32.78795 -11.0078,-11.76743 -28.8975,-21.59567 -55.5495,-30.51789 -19.4209,-6.50148 -32.6763,-9.19416 -45.2608,-9.19416 -12.3801,0 -17.2905,1.44687 -28.7392,8.46821 -4.95,3.03578 -9.5625,5.52233 -10.25,5.52569 -2.1027,0.0103 -1.4038,-5.97754 1.75,-14.9939 3.5781,-10.22917 3.6698,-11.80255 0.75,-12.87922 -2.5036,-0.92324 -18.7222,-4.03148 -37.75,-7.23466 -6.875,-1.15734 -14.525,-2.47837 -17,-2.93559 -12.381,-2.28724 -37.4392,-0.35013 -64.9395,5.02011 -13.1694,2.57173 -36.72026,5.64271 -54.06045,7.04939 -12.30661,0.99834 -16.52054,0.93431 -27.85734,-0.42331 -11.68338,-1.39912 -13.7486,-1.92881 -16.47946,-4.22668 -3.10983,-2.61675 -3.17149,-2.6246 -15.64267,-1.99561 -10.91247,0.55038 -14.76812,0.26766 -30.02053,-2.20135 l -17.5,-2.83283 -6.999995,-5.26086 c -13.67691,-10.27889 -33.73042,-18.07939 -46.47846,-18.07939 -12.13002,0 -21.85127,5.2441 -27.88208,15.04093 -3.22323,5.236 -3.33516,5.31606 -2.73934,1.95907 1.09623,-6.17646 11.08972,-18.99655 30.67661,-39.35335 15.92778,-16.55386 18.99385,-20.21012 18.44886,-22 -1.32069,-4.33744 -1.05259,-5.01098 2.27516,-5.71575 4.04715,-0.85714 4.16694,-0.97382 5.23786,-5.10168 0.47505,-1.83107 1.84574,-6.02922 3.04598,-9.32922 1.20025,-3.3 2.18065,-8.025 2.17869,-10.5 -0.002,-2.8186 0.63918,-5.24729 1.71665,-6.5 0.94612,-1.1 3.39669,-6.275 5.44571,-11.5 2.04903,-5.225 4.29826,-10.4 4.9983,-11.5 0.70005,-1.1 1.82594,-3.6875 2.50199,-5.75 0.67605,-2.0625 1.60278,-3.75 2.059405,-3.75 0.97739,0 11.97031,-16.21709 13.71639,-20.23482 0.66095,-1.52085 1.65083,-2.76518 2.19974,-2.76518 2.29317,0 15.11596,-13.69658 17.13359,-18.30114 2.24758,-5.12934 4.66921,-6.69886 10.33576,-6.69886 1.89801,0 4.66368,-1.0499 6.67541,-2.5341 6.75353,-4.9826 14.83997,-6.69651 32.45377,-6.87854 12.86222,-0.13292 16.78444,-0.51196 20,-1.93277 2.2,-0.97208 9.12501,-3.07232 15.3889,-4.66719 6.2639,-1.59487 12.3389,-3.75253 13.5,-4.79481 3.04484,-2.73324 3.66755,-3.01899 14.91145,-6.8426 5.6074,-1.90685 11.0963,-4.28304 12.1975,-5.28043 3.9827,-3.60724 10.1766,-7.08069 15.3843,-8.62719 2.9233,-0.86814 5.5237,-1.36989 5.7785,-1.115 0.7235,0.72345 -2.4074,14.83501 -5.167,23.28878 -1.3715,4.20153 -2.4937,8.62185 -2.4937,9.82292 0,3.1194 3.4587,6.41418 9.9078,9.43849 7.8035,3.65938 20.3627,3.52932 34.5922,-0.35825 8.4401,-2.30588 12.8859,-2.84175 28.5,-3.43536 15.5105,-0.58965 19.5504,-1.07254 25,-2.98824 7.6965,-2.70554 33.5701,-16.47711 43.5,-23.15344 7.4663,-5.01988 17.6958,-15.16105 23.7943,-23.58882 5.5093,-7.61349 7.4015,-7.99538 14.1378,-2.85345 2.5219,1.925 5.4264,3.5 6.4545,3.5 3.0968,0 8.4574,2.65776 11.1134,5.50999 3.574,3.83788 8.3377,6.0202 18.3128,8.38928 4.8052,1.14125 10.0533,2.75578 11.6624,3.58785 1.8393,0.95119 5.6767,1.51288 10.3356,1.51288 6.3551,0 7.9626,0.37491 11.2905,2.63326 2.1342,1.4483 6.5845,3.50975 9.8895,4.58102 7.3594,2.38538 9.1695,3.518 17.9168,11.21083 13.6237,11.98133 18.916,17.18291 24.5976,24.17594 8.6013,10.58666 10.2856,13.57397 16.4652,29.20297 l 5.6557,14.30402 0.936,15.19598 c 0.6258,10.15911 0.5935,17.01901 -0.097,20.69598 -0.5684,3.02499 -1.4653,12.475 -1.9933,21 -2.6631,43.00391 -2.796,44.24222 -5.9543,55.5 -4.4682,15.92638 -8.6676,28.29548 -11.5054,33.88846 -1.6185,3.19002 -2.2687,5.73156 -1.8712,7.31507 0.4469,1.78057 -0.074,3.14143 -1.9552,5.11154 -3.534,3.70037 -8.9537,24.89533 -8.8691,34.68493 0.043,4.9233 -0.8542,10.26337 -3.0226,18 -3.3018,11.78071 -6.7375,17.94412 -12.0459,21.60973 -1.7862,1.23343 -3.3867,2.33986 -3.5567,2.45874 -1.2396,0.86722 -5.154,14.80745 -5.1755,18.43153 -0.035,5.98987 -1.3555,10.55271 -6.5093,22.5 -5.5756,12.9252 -7.3447,23.44827 -5.0894,30.27466 1.9933,6.03353 5.2199,21.88996 6.0996,29.97534 l 0.68,6.25 H 342.16091 148.65784 l 0.37104,-3.75 z m 62.43865,-82.06542 c 0,-1.56875 3.26124,-3.60268 29.99995,-18.71005 23.8913,-13.49851 34.2359,-19.90666 52.3686,-32.44049 4.8777,-3.37162 9.1284,-5.87041 9.4459,-5.55287 0.3176,0.31753 -2.7733,3.95124 -6.8685,8.07492 -5.552,5.59048 -9.6793,8.65134 -16.2261,12.03339 -9.4111,4.86177 -23.4143,14.0531 -36.0176,23.64099 -12.10022,9.20519 -18.55216,12.48718 -26.14704,13.30052 -4.35163,0.46602 -6.55521,0.34958 -6.55521,-0.34641 z m 314.08555,-13.68458 c 0.1042,-1.89423 1.7708,-5.08385 1.8288,-3.5 0.03,0.825 -0.3812,2.17499 -0.9144,3 -0.5331,0.825 -0.9446,1.04999 -0.9144,0.5 z M 328.56871,438.51313 c -1.0842,-0.68065 -1.4431,-4.31668 -1.5959,-16.16707 -0.2203,-17.08838 0.6195,-15.1076 -9.0053,-21.24089 -2.75,-1.7524 -6.4061,-5.28611 -8.1247,-7.85266 -2.9694,-4.43453 -5.1473,-11.37689 -3.9459,-12.57828 0.8037,-0.80363 4.5706,2.82346 4.5706,4.40086 0,3.12074 22.0764,10.66876 25.3274,8.65954 0.6334,-0.39148 4.9814,-0.80343 9.6622,-0.91546 7.0053,-0.16767 9.783,-0.75006 15.7056,-3.29296 3.9574,-1.69909 7.8137,-3.08926 8.5697,-3.08926 0.756,0 2.3364,-1.0125 3.5122,-2.25 1.1757,-1.23751 3.7168,-3.8162 5.6469,-5.73044 3.326,-3.29864 5.7268,-7.19301 7.0358,-11.41269 0.773,-2.49171 1.812,-1.35296 1.9391,2.1253 0.081,2.21843 0.627,2.82871 2.7505,3.07454 2.8076,0.32503 3.7775,3.05503 3.444,9.69329 -0.1639,3.26297 -6.3452,16.5 -7.705,16.5 -0.4603,0 -1.5351,1.35 -2.3884,3 -0.8532,1.64999 -2.149,3 -2.8796,3 -0.7306,0 -2.6315,1.2319 -4.2243,2.73755 -1.5928,1.50566 -4.5005,3.47146 -6.4614,4.36845 -1.961,0.89699 -5.111,2.95781 -7,4.57961 -1.8891,1.62178 -6.2093,4.86962 -9.6005,7.21744 -3.3913,2.3478 -7.9996,6.4434 -10.2409,9.10136 -2.7693,3.2843 -5.1191,5.04287 -7.3341,5.48877 -1.7925,0.36087 -3.9342,0.83726 -4.7592,1.05865 -0.825,0.22138 -2.1294,0.007 -2.8988,-0.47565 z m -26.1012,-60.57618 c 0,-0.275 0.225,-0.5 0.5,-0.5 0.275,0 0.5,0.225 0.5,0.5 0,0.27499 -0.225,0.5 -0.5,0.5 -0.275,0 -0.5,-0.22501 -0.5,-0.5 z m 36.5,-16.5 c -0.3399,-0.55001 0.3086,-1 1.441,-1 1.1325,0 2.059,0.44999 2.059,1 0,0.55 -0.6484,1 -1.4409,1 -0.7926,0 -1.7191,-0.45 -2.0591,-1 z m -12.5,-21 c 0,-1.19413 2.7212,-1.19413 5.5,0 1.6044,0.68941 1.2582,0.87333 -1.75,0.92971 -2.0625,0.0387 -3.75,-0.37971 -3.75,-0.92971 z m 15,0 c 0,-0.55001 1.2375,-0.96837 2.75,-0.92971 2.4369,0.0623 2.5223,0.16815 0.75,0.92971 -2.7313,1.17371 -3.5,1.17371 -3.5,0 z m -39.3222,-5.54699 c -5.7572,-2.90596 -10.1224,-4.45301 -12.5648,-4.45301 -3.2994,0 -3.942,-0.41839 -5.4277,-3.53393 -3.2339,-6.78143 -1.5457,-12.21178 5.2633,-16.93041 2.2482,-1.55802 4.2968,-2.62362 4.5525,-2.36799 0.2556,0.25563 0.023,2.00701 -0.5182,3.89195 -0.5406,1.88494 -0.9829,4.94078 -0.9829,6.79076 0,2.81948 0.2831,3.24353 1.75,2.62142 3.0998,-1.3146 5.4603,-1.01619 6.619,0.83676 0.9153,1.46351 0.7504,2.09111 -0.8641,3.28949 -2.9454,2.18626 -0.4175,3.36786 7.2451,3.38664 l 6.25,0.0153 v 3.37756 c 0,1.85765 0.6701,3.93364 1.489,4.6133 0.819,0.67966 1.2424,1.63477 0.941,2.12245 -1.0947,1.77123 -5.1071,0.70328 -13.7522,-3.6603 z m 65.188,-5.74032 c -1.1754,-1.59148 -2.8599,-2.2895 -6,-2.48627 -6.008,-0.3765 -6.6219,-0.35947 -12.8658,0.35697 -3.025,0.34708 -7.075,0.58933 -9,0.5383 -1.925,-0.051 -6.5626,-0.16416 -10.3058,-0.2514 -4.9715,-0.11586 -6.5078,-0.45666 -5.6999,-1.26445 0.6723,-0.67229 5.6929,-1.13541 12.8058,-1.18127 6.435,-0.0415 12.8249,-0.37452 14.1999,-0.74009 1.375,-0.36557 7.1546,-1.11856 12.8435,-1.67329 5.6888,-0.55474 10.7732,-1.27427 11.2985,-1.59893 1.4601,-0.9024 -1.2223,-3.59542 -2.9289,-2.94052 -0.8066,0.30952 -1.972,0.17029 -2.5898,-0.30939 -0.6178,-0.47969 -2.5075,-1.33678 -4.1994,-1.90464 -2.4395,-0.81876 -3.2681,-0.72819 -4.0035,0.43761 -0.5954,0.94396 -3.7473,1.78633 -8.8069,2.35374 -4.3337,0.48601 -9.5072,1.42314 -11.4965,2.0825 -5.5509,1.83985 -21.5342,1.48032 -24.6393,-0.55423 -1.3938,-0.91325 -2.9714,-1.39019 -3.5059,-1.05987 -1.9287,1.192 -2.8657,-0.52318 -1.8607,-3.40605 2.5534,-7.32479 8.1522,-8.90358 18.1282,-5.11191 7.739,2.94144 11.9918,2.61239 18.6703,-1.44453 3.1191,-1.89477 6.9498,-3.93121 8.5127,-4.52542 4.0939,-1.5565 8.0511,0.47614 10.1987,5.23867 0.949,2.10442 2.3514,4.17654 3.1165,4.6047 1.6356,0.91538 13.2965,-0.50689 14.5663,-1.77664 0.4968,-0.49687 -0.2025,-2.53564 -1.6241,-4.73446 -2.3142,-3.57936 -4.4943,-10.36182 -3.3308,-10.36182 1.4514,0 12.6937,7.43493 15.2034,10.05457 4.0347,4.21126 4.0868,10.1388 0.1193,13.55156 -1.5307,1.31662 -3.5304,2.39387 -4.4439,2.39387 -2.523,0 -10.3102,3.15382 -14.1172,5.71746 -4.2073,2.83322 -6.1495,2.83209 -8.2447,-0.005 z m -119.8257,-64.11937 c -1.1057,-2.57936 -3.2803,-6.58054 -4.8326,-8.89154 -3.32599,-4.95178 -5.87387,-15.25932 -7.21822,-29.20178 -0.53032,-5.5 -1.40025,-12.02501 -1.93317,-14.5 -1.58219,-7.34795 -1.27622,-20.56205 0.57383,-24.78212 1.63721,-3.73461 2.55009,-7.67813 4.31254,-18.62963 0.81922,-5.09047 1.59203,-6.56217 5.56282,-10.59356 3.8016,-3.8597 4.4997,-5.12665 3.9755,-7.21516 -0.8389,-3.34281 4.0419,-8.99723 10.6622,-12.35199 3.1028,-1.5723 5.0325,-3.27852 5.4103,-4.78368 0.4615,-1.83872 1.1075,-2.24021 3.017,-1.87518 2.0812,0.39785 2.4297,0.0823 2.4297,-2.19985 0,-5.41202 7.0872,-8.9127 17.25,-8.5206 2.6238,0.10122 7.8528,-1.59281 7.8667,-2.54854 0.01,-0.54983 0.7725,-0.812 1.6989,-0.58261 4.8225,1.19409 6.6808,0.61502 7.0023,-2.18202 0.2388,-2.07728 1.189,-3.1289 3.8204,-4.22838 4.2683,-1.78342 14.6028,-1.33228 15.2197,0.6644 1.0428,3.37519 2.2792,3.78736 5.1017,1.70066 2.4221,-1.79078 3.0551,-1.88182 4.953,-0.71245 1.9418,1.19647 2.3693,1.0862 3.9732,-1.02492 1.6346,-2.15162 2.2688,-2.30077 7.0105,-1.64862 3.4883,0.47976 5.6057,1.34523 6.399,2.61563 1.6371,2.62132 4.7357,2.37548 7.1671,-0.56862 1.4734,-1.78415 3.4263,-2.64182 7.0534,-3.09777 4.5535,-0.57242 5.2679,-0.3785 7.75,2.1036 1.5038,1.50378 2.7341,3.31481 2.7341,4.02453 0,0.70972 1.35,1.99836 3,2.86364 1.65,0.86528 4.3264,2.26942 5.9476,3.12031 1.6211,0.85088 3.922,3.12386 5.1131,5.05106 1.1911,1.9272 3.3522,4.24793 4.8025,5.15718 1.4502,0.90926 4.2581,3.07525 6.2396,4.81332 2.3912,2.09737 5.1379,3.39033 8.1675,3.84464 6.2443,0.93639 11.9516,5.30077 14.7076,11.24687 1.2338,2.66192 3.7305,7.76486 5.5482,11.33986 4.8792,9.5963 8.0607,29.85877 6.4483,41.06782 -0.5089,3.5377 -0.643,12.15078 -0.2979,19.14019 0.7092,14.36636 -0.6892,20.5655 -5.0917,22.57141 -1.333,0.60735 -3.4412,3.34443 -4.8353,6.27776 -1.6586,3.48964 -2.7306,4.78235 -3.2581,3.92879 -0.4324,-0.69966 -1.3691,-6.58813 -2.0815,-13.08549 -0.7124,-6.49735 -2.4461,-15.45619 -3.8526,-19.90854 -1.4065,-4.45235 -2.5599,-9.08445 -2.5631,-10.29356 0,-1.20911 -1.3239,-7.06022 -2.9348,-13.00246 -1.6109,-5.94225 -3.2346,-13.36725 -3.6082,-16.5 -0.5914,-4.95984 -2.5165,-9.89206 -9.7847,-25.06943 -1.593,-3.32645 -10.7221,-10.90921 -14.7791,-12.27573 -1.8631,-0.62752 -3.9521,-1.58258 -4.6422,-2.12235 -0.6902,-0.53978 -3.964,-1.17373 -7.2752,-1.40879 -5.4286,-0.38539 -6.4663,-0.12637 -10.5591,2.63582 -4.6493,3.13778 -10.5144,4.97677 -16.0108,5.02011 -1.8269,0.0144 -4.8007,1.25647 -7.2414,3.02445 -2.2777,1.65 -4.7458,3 -5.4847,3 -0.7388,0 -2.6094,1.42093 -4.1568,3.15762 -2.3894,2.68166 -2.9796,2.9324 -3.9153,1.66343 -2.6752,-3.62774 -27.1899,-2.80141 -34.816,1.17356 -3.3173,1.72904 -4.4194,1.85146 -8.0641,0.8957 -2.322,-0.60888 -5.6457,-1.17078 -7.3862,-1.24868 -1.7404,-0.0779 -3.5029,-0.47913 -3.9166,-0.89163 -1.4559,-1.4515 -2.4908,-0.70614 -5.4092,3.89574 -7.6075,11.99571 -10.5985,29.76218 -9.3596,55.59533 0.4846,10.10348 0.3147,14.3188 -0.6798,16.86467 -0.847,2.16829 -1.366,8.34458 -1.4372,17.10002 -0.061,7.53816 -0.4199,14.01435 -0.7971,14.39153 -0.3772,0.37718 -1.5904,-1.4246 -2.696,-4.00397 z m 179.9599,0.90668 c 0,-0.825 0.45,-1.5 1,-1.5 0.55,0 1,0.675 1,1.5 0,0.82499 -0.45,1.5 -1,1.5 -0.55,0 -1,-0.67501 -1,-1.5 z m -61,-0.76198 c -2.4822,-1.12718 -2.4751,-1.13795 1,-1.51961 1.925,-0.21143 5.975,-0.0658 9,0.32364 4.1871,0.53901 5.0226,0.90013 3.5,1.5127 -2.9219,1.17559 -10.6108,0.99519 -13.5,-0.31673 z m -96,-5.57189 c 0,-2.44047 1.7076,-4.36165 7,-7.87558 5.6849,-3.77448 8.4233,-4.46548 19.2244,-4.85103 4.7984,-0.17129 9.5079,-0.74991 10.4655,-1.28585 2.3914,-1.33826 9.0971,2.15579 10.3224,5.37852 2.0383,5.36105 -1.7773,7.9055 -12.0123,8.01049 -8.1822,0.0839 -27.8571,1.29018 -32.25,1.97722 -2.133,0.3336 -2.75,0.0299 -2.75,-1.35377 z m 167.5963,-5.91614 c -1.1454,-6.89988 -1.1042,-7.48286 0.6058,-8.58363 2.5647,-1.65097 2.988,-0.4688 2.2303,6.22851 -0.784,6.92983 -1.92,7.87321 -2.8361,2.35512 z m -85.2508,-1.70074 c -3.6187,-1.57438 -4.1931,-2.93276 -4.4694,-10.56992 -0.2319,-6.40956 3.2635,-13.95826 6.4696,-13.97164 1.0151,-0.004 3.2285,-0.99239 4.9186,-2.1959 2.4447,-1.74074 5.1346,-2.33242 13.1544,-2.89349 10.3738,-0.72576 12.8057,-0.23616 14.4937,2.9179 0.8429,1.575 0.2742,1.9317 -4.7271,2.96499 -7.5942,1.56901 -22.5704,9.1075 -23.0344,11.59471 -0.2795,1.49805 0.035,1.73859 1.4977,1.1462 3.764,-1.52419 14.0631,-2.22617 21.1357,-1.44061 8.6156,0.95694 14.4079,3.8641 17.2305,8.6481 2.6194,4.43957 2.5641,4.58158 -1.4884,3.82132 -5.7803,-1.08439 -31.8117,-0.82937 -34.8415,0.34132 -3.6742,1.41974 -6.4673,1.32168 -10.3394,-0.36298 z m 29.1545,-10.54926 c -0.3399,-0.55 -1.0414,-1 -1.559,-1 -0.5175,0 -0.941,0.45 -0.941,1 0,0.55 0.7016,1 1.5591,1 0.8574,0 1.2809,-0.45 0.9409,-1 z m -90.9382,-3.16668 c -5.7943,-1.59927 -7.6903,-1.73143 -11.5,-0.80157 -2.509,0.6124 -5.9118,1.36322 -7.5618,1.66849 l -3,0.55505 2.3299,-2.52711 c 6.195,-6.71943 21.1254,-10.76929 26.5643,-7.20556 1.8897,1.23819 3.0256,1.45762 3.7573,0.72588 1.205,-1.20493 9.6441,2.76308 12.4347,5.8467 2.1183,2.3407 1.4758,2.57977 -8.5862,3.19474 -5.4697,0.33429 -9.3782,-0.06 -14.4382,-1.45662 z m 106.4291,-5.34433 c -1.0048,-1.21067 -0.9435,-1.48899 0.3277,-1.48899 1.8669,0 3.0875,1.63099 1.8111,2.41989 -0.4967,0.30695 -1.4591,-0.11196 -2.1388,-0.9309 z M 265.46751,125.40557 c 0,-0.53274 0.675,-0.96862 1.5,-0.96862 0.825,0 1.5,0.17686 1.5,0.39301 0,0.21616 -0.675,0.65203 -1.5,0.96862 -0.825,0.31658 -1.5,0.13972 -1.5,-0.39301 z"
         id="path1325"
         sodipodi:nodetypes="ssssscssssssssssssssssssssssssssssssscssssssssssssssssssssssssssssssssssssssssssssssscsssssssssssssssccccsssssssssssssscssssssssssssssssssssssssscssssssssssssssssssssssssssssscssssscssssssssssssssssssssssssssssssccsssssssssssssssssssssssssssssssssssssssssscsssssssssssssssssssssssssssssssssssssssssssssscssssssssssssssssssscsssssssssssssss" />
    </g>
  </g>
</svg>
